<svg width="34" height="34" viewBox="0 0 34 34" fill="none" xmlns="http://www.w3.org/2000/svg">
<path d="M10.2 15.98C9.63667 15.98 9.17999 16.4367 9.17999 17C9.17999 17.5633 9.63667 18.02 10.2 18.02V15.98ZM17 18.02C17.5633 18.02 18.02 17.5633 18.02 17C18.02 16.4367 17.5633 15.98 17 15.98V18.02ZM17 15.98C16.4367 15.98 15.98 16.4367 15.98 17C15.98 17.5633 16.4367 18.02 17 18.02V15.98ZM23.8 18.02C24.3633 18.02 24.82 17.5633 24.82 17C24.82 16.4367 24.3633 15.98 23.8 15.98V18.02ZM18.02 17C18.02 16.4367 17.5633 15.98 17 15.98C16.4367 15.98 15.98 16.4367 15.98 17H18.02ZM15.98 23.8C15.98 24.3633 16.4367 24.82 17 24.82C17.5633 24.82 18.02 24.3633 18.02 23.8H15.98ZM15.98 17C15.98 17.5633 16.4367 18.02 17 18.02C17.5633 18.02 18.02 17.5633 18.02 17H15.98ZM18.02 10.2C18.02 9.63667 17.5633 9.17999 17 9.17999C16.4367 9.17999 15.98 9.63667 15.98 10.2H18.02ZM10.2 18.02H17V15.98H10.2V18.02ZM17 18.02H23.8V15.98H17V18.02ZM17 17H15.98V17.0014C15.98 17.0015 15.98 17.003 15.98 17.003C15.98 17.0028 15.98 17.0031 15.98 17.003C15.98 17.003 15.98 17.0045 15.98 17.0046C15.98 17.0045 15.98 17.0048 15.98 17.0046C15.98 17.0048 15.98 17.0058 15.98 17.006C15.98 17.0061 15.98 17.0073 15.98 17.0075C15.98 17.0076 15.98 17.0087 15.98 17.0088C15.98 17.009 15.98 17.0102 15.98 17.0105C15.98 17.0106 15.98 17.0118 15.98 17.0121C15.98 17.0122 15.98 17.0137 15.98 17.0139C15.98 17.0136 15.98 17.0141 15.98 17.0139C15.98 17.0141 15.98 17.015 15.98 17.0152C15.98 17.015 15.98 17.0155 15.98 17.0152C15.98 17.0155 15.98 17.0164 15.98 17.0166C15.98 17.0163 15.98 17.0169 15.98 17.0166C15.98 17.0169 15.98 17.0178 15.98 17.0181C15.98 17.0178 15.98 17.0184 15.98 17.0181C15.98 17.0184 15.98 17.0194 15.98 17.0197C15.98 17.0194 15.98 17.02 15.98 17.0197C15.98 17.02 15.98 17.0211 15.98 17.0213C15.98 17.0209 15.98 17.0216 15.98 17.0213C15.98 17.0216 15.98 17.0228 15.98 17.0231C15.98 17.0228 15.98 17.0234 15.98 17.0231C15.98 17.0234 15.98 17.0246 15.98 17.025C15.98 17.0246 15.98 17.0253 15.98 17.025C15.98 17.0253 15.98 17.0266 15.98 17.0269C15.98 17.0266 15.98 17.0272 15.98 17.0269C15.98 17.0273 15.98 17.0286 15.98 17.029C15.98 17.0286 15.98 17.0294 15.98 17.029C15.98 17.0292 15.98 17.0307 15.98 17.0311C15.98 17.0307 15.98 17.0314 15.98 17.0311C15.98 17.0315 15.98 17.0329 15.98 17.0333C15.98 17.0329 15.98 17.0337 15.98 17.0333C15.98 17.0337 15.98 17.0354 15.98 17.0358C15.98 17.0354 15.98 17.0362 15.98 17.0358C15.98 17.0362 15.98 17.0378 15.98 17.0382C15.98 17.0378 15.98 17.0386 15.98 17.0382C15.98 17.0386 15.98 17.0402 15.98 17.0408C15.98 17.0404 15.98 17.0412 15.98 17.0408C15.98 17.0413 15.98 17.043 15.98 17.0434C15.98 17.0439 15.98 17.0443 15.98 17.0449C15.98 17.0453 15.98 17.0457 15.98 17.0462C15.98 17.0468 15.98 17.0472 15.98 17.0477C15.98 17.0481 15.98 17.0487 15.98 17.0491C15.98 17.0496 15.98 17.0502 15.98 17.0507C15.98 17.0511 15.98 17.0517 15.98 17.0522C15.98 17.0528 15.98 17.0532 15.98 17.0537C15.98 17.0543 15.98 17.0548 15.98 17.0553C15.98 17.0559 15.98 17.0564 15.98 17.057C15.98 17.0575 15.98 17.0581 15.98 17.0586C15.98 17.0592 15.98 17.0598 15.98 17.0604C15.98 17.0609 15.98 17.0615 15.98 17.062C15.98 17.0627 15.98 17.0632 15.98 17.0638C15.98 17.0645 15.98 17.065 15.98 17.0655C15.98 17.0662 15.98 17.0668 15.98 17.0674C15.98 17.068 15.98 17.0687 15.98 17.0692C15.98 17.0699 15.98 17.0706 15.98 17.0711C15.98 17.0718 15.98 17.0725 15.98 17.0732C15.98 17.0737 15.98 17.0744 15.98 17.0751C15.98 17.0757 15.98 17.0764 15.98 17.0771C15.98 17.0776 15.98 17.0783 15.98 17.079C15.98 17.0797 15.98 17.0805 15.98 17.0812C15.98 17.0819 15.98 17.0825 15.98 17.0832C15.98 17.0839 15.98 17.0846 15.98 17.0854C15.98 17.0861 15.98 17.0868 15.98 17.0876C15.98 17.0883 15.98 17.0891 15.98 17.0898C15.98 17.0904 15.98 17.0912 15.98 17.0919C15.98 17.0927 15.98 17.0936 15.98 17.0942C15.98 17.0951 15.98 17.0959 15.98 17.0966C15.98 17.0974 15.98 17.0982 15.98 17.099C15.98 17.0997 15.98 17.1005 15.98 17.1013C15.98 17.1021 15.98 17.1029 15.98 17.1038C15.98 17.1046 15.98 17.1054 15.98 17.1062C15.98 17.107 15.98 17.108 15.98 17.1088C15.98 17.1096 15.98 17.1104 15.98 17.1112C15.98 17.1122 15.98 17.113 15.98 17.1138C15.98 17.1148 15.98 17.1156 15.98 17.1165C15.98 17.1174 15.98 17.1183 15.98 17.1191C15.98 17.1201 15.98 17.121 15.98 17.1218C15.98 17.1228 15.98 17.1238 15.98 17.1247C15.98 17.1255 15.98 17.1265 15.98 17.1274C15.98 17.1284 15.98 17.1293 15.98 17.1303C15.98 17.1312 15.98 17.1322 15.98 17.1331C15.98 17.1341 15.98 17.135 15.98 17.136C15.98 17.1371 15.98 17.138 15.98 17.139C15.98 17.1401 15.98 17.141 15.98 17.142C15.98 17.1431 15.98 17.144 15.98 17.1451C15.98 17.1461 15.98 17.1471 15.98 17.1481C15.98 17.1492 15.98 17.1503 15.98 17.1512C15.98 17.1523 15.98 17.1534 15.98 17.1545C15.98 17.1556 15.98 17.1565 15.98 17.1576C15.98 17.1587 15.98 17.1598 15.98 17.1609C15.98 17.162 15.98 17.1632 15.98 17.1643C15.98 17.1654 15.98 17.1665 15.98 17.1675C15.98 17.1688 15.98 17.1699 15.98 17.1709C15.98 17.1722 15.98 17.1733 15.98 17.1745C15.98 17.1756 15.98 17.1768 15.98 17.1779C15.98 17.1791 15.98 17.1803 15.98 17.1814C15.98 17.1826 15.98 17.1839 15.98 17.1851C15.98 17.1862 15.98 17.1874 15.98 17.1886C15.98 17.1898 15.98 17.1911 15.98 17.1923C15.98 17.1935 15.98 17.1947 15.98 17.1961C15.98 17.1973 15.98 17.1986 15.98 17.1998C15.98 17.2011 15.98 17.2024 15.98 17.2036C15.98 17.2049 15.98 17.2062 15.98 17.2075C15.98 17.2088 15.98 17.2101 15.98 17.2115C15.98 17.2127 15.98 17.2141 15.98 17.2154C15.98 17.2168 15.98 17.218 15.98 17.2194C15.98 17.2207 15.98 17.2221 15.98 17.2234C15.98 17.2248 15.98 17.2262 15.98 17.2275C15.98 17.229 15.98 17.2304 15.98 17.2317C15.98 17.2331 15.98 17.2346 15.98 17.236C15.98 17.2373 15.98 17.2388 15.98 17.2402C15.98 17.2417 15.98 17.243 15.98 17.2445C15.98 17.246 15.98 17.2474 15.98 17.2489C15.98 17.2504 15.98 17.2519 15.98 17.2534C15.98 17.2549 15.98 17.2564 15.98 17.2578C15.98 17.2593 15.98 17.2608 15.98 17.2623C15.98 17.2638 15.98 17.2653 15.98 17.2668C15.98 17.2685 15.98 17.27 15.98 17.2716C15.98 17.2731 15.98 17.2746 15.98 17.2762C15.98 17.2777 15.98 17.2793 15.98 17.281C15.98 17.2825 15.98 17.2841 15.98 17.2857C15.98 17.2874 15.98 17.289 15.98 17.2906C15.98 17.2923 15.98 17.2939 15.98 17.2955C15.98 17.2972 15.98 17.2988 15.98 17.3004C15.98 17.302 15.98 17.3037 15.98 17.3054C15.98 17.3071 15.98 17.3088 15.98 17.3105C15.98 17.3122 15.98 17.3139 15.98 17.3156C15.98 17.3173 15.98 17.319 15.98 17.3208C15.98 17.3224 15.98 17.3242 15.98 17.326C15.98 17.3278 15.98 17.3295 15.98 17.3313C15.98 17.3331 15.98 17.3348 15.98 17.3366C15.98 17.3384 15.98 17.3403 15.98 17.342C15.98 17.3438 15.98 17.3457 15.98 17.3475C15.98 17.3494 15.98 17.3511 15.98 17.353C15.98 17.3548 15.98 17.3567 15.98 17.3586C15.98 17.3604 15.98 17.3623 15.98 17.3642C15.98 17.3661 15.98 17.368 15.98 17.3699C15.98 17.3718 15.98 17.3737 15.98 17.3756C15.98 17.3775 15.98 17.3796 15.98 17.3815C15.98 17.3834 15.98 17.3854 15.98 17.3873C15.98 17.3894 15.98 17.3913 15.98 17.3933C15.98 17.3952 15.98 17.3972 15.98 17.3993C15.98 17.4013 15.98 17.4032 15.98 17.4053C15.98 17.4073 15.98 17.4094 15.98 17.4114C15.98 17.4134 15.98 17.4155 15.98 17.4176C15.98 17.4197 15.98 17.4217 15.98 17.4238C15.98 17.4259 15.98 17.428 15.98 17.4302C15.98 17.4322 15.98 17.4344 15.98 17.4364C15.98 17.4386 15.98 17.4408 15.98 17.4429C15.98 17.445 15.98 17.4472 15.98 17.4493C15.98 17.4515 15.98 17.4537 15.98 17.4559C15.98 17.458 15.98 17.4604 15.98 17.4625C15.98 17.4647 15.98 17.467 15.98 17.4692C15.98 17.4714 15.98 17.4737 15.98 17.476C15.98 17.4782 15.98 17.4805 15.98 17.4828C15.98 17.485 15.98 17.4873 15.98 17.4896C15.98 17.4919 15.98 17.4942 15.98 17.4965C15.98 17.4988 15.98 17.5012 15.98 17.5035C15.98 17.5059 15.98 17.5082 15.98 17.5105C15.98 17.513 15.98 17.5153 15.98 17.5177C15.98 17.5201 15.98 17.5225 15.98 17.5248C15.98 17.5273 15.98 17.5297 15.98 17.5322C15.98 17.5346 15.98 17.5371 15.98 17.5395C15.98 17.542 15.98 17.5444 15.98 17.5468C15.98 17.5493 15.98 17.5517 15.98 17.5543C15.98 17.5568 15.98 17.5594 15.98 17.5618C15.98 17.5644 15.98 17.5668 15.98 17.5694C15.98 17.572 15.98 17.5745 15.98 17.577C15.98 17.5796 15.98 17.5822 15.98 17.5848C15.98 17.5874 15.98 17.59 15.98 17.5927C15.98 17.5953 15.98 17.5978 15.98 17.6004C15.98 17.6032 15.98 17.6057 15.98 17.6085C15.98 17.611 15.98 17.6138 15.98 17.6165C15.98 17.6191 15.98 17.6218 15.98 17.6245C15.98 17.6272 15.98 17.6299 15.98 17.6327C15.98 17.6354 15.98 17.6381 15.98 17.6408C15.98 17.6435 15.98 17.6464 15.98 17.6491C15.98 17.652 15.98 17.6547 15.98 17.6576C15.98 17.6603 15.98 17.6631 15.98 17.666C15.98 17.6687 15.98 17.6716 15.98 17.6744C15.98 17.6773 15.98 17.6801 15.98 17.683C15.98 17.6858 15.98 17.6887 15.98 17.6917C15.98 17.6945 15.98 17.6974 15.98 17.7004C15.98 17.7032 15.98 17.7062 15.98 17.7091C15.98 17.7121 15.98 17.7151 15.98 17.7181C15.98 17.7209 15.98 17.7239 15.98 17.7269C15.98 17.7299 15.98 17.7329 15.98 17.736C15.98 17.739 15.98 17.742 15.98 17.745C15.98 17.7481 15.98 17.7511 15.98 17.7542C15.98 17.7572 15.98 17.7604 15.98 17.7635C15.98 17.7665 15.98 17.7696 15.98 17.7727C15.98 17.7759 15.98 17.779 15.98 17.7821C15.98 17.7853 15.98 17.7884 15.98 17.7916C15.98 17.7948 15.98 17.7979 15.98 17.8012C15.98 17.8043 15.98 17.8076 15.98 17.8108C15.98 17.814 15.98 17.8172 15.98 17.8205C15.98 17.8237 15.98 17.827 15.98 17.8303C15.98 17.8335 15.98 17.8368 15.98 17.8401C15.98 17.8433 15.98 17.8467 15.98 17.85C15.98 17.8533 15.98 17.8567 15.98 17.8601C15.98 17.8633 15.98 17.8667 15.98 17.8701C15.98 17.8734 15.98 17.8768 15.98 17.8802C15.98 17.8836 15.98 17.887 15.98 17.8905C15.98 17.8939 15.98 17.8973 15.98 17.9007C15.98 17.9043 15.98 17.9077 15.98 17.9112C15.98 17.9146 15.98 17.9181 15.98 17.9217C15.98 17.9252 15.98 17.9286 15.98 17.9321C15.98 17.9357 15.98 17.9392 15.98 17.9429C15.98 17.9464 15.98 17.95 15.98 17.9535C15.98 17.9572 15.98 17.9607 15.98 17.9644C15.98 17.9679 15.98 17.9716 15.98 17.9752C15.98 17.9789 15.98 17.9825 15.98 17.9861C15.98 17.9898 15.98 17.9935 15.98 17.9971C15.98 18.001 15.98 18.0046 15.98 18.0083C15.98 18.0121 15.98 18.0158 15.98 18.0196C15.98 18.0233 15.98 18.0271 15.98 18.0309C15.98 18.0345 15.98 18.0384 15.98 18.0422C15.98 18.046 15.98 18.0498 15.98 18.0536C15.98 18.0575 15.98 18.0613 15.98 18.0651C15.98 18.0691 15.98 18.0729 15.98 18.0768C15.98 18.0806 15.98 18.0846 15.98 18.0885C15.98 18.0925 15.98 18.0963 15.98 18.1002C15.98 18.1042 15.98 18.1083 15.98 18.1122C15.98 18.1161 15.98 18.1201 15.98 18.1242C15.98 18.1281 15.98 18.1322 15.98 18.1361C15.98 18.1402 15.98 18.1443 15.98 18.1482C15.98 18.1523 15.98 18.1564 15.98 18.1605C15.98 18.1646 15.98 18.1686 15.98 18.1729C15.98 18.1769 15.98 18.181 15.98 18.1852C15.98 18.1893 15.98 18.1935 15.98 18.1977C15.98 18.2018 15.98 18.206 15.98 18.2103C15.98 18.2145 15.98 18.2187 15.98 18.2229C15.98 18.2271 15.98 18.2313 15.98 18.2357C15.98 18.2399 15.98 18.2441 15.98 18.2485C15.98 18.2527 15.98 18.257 15.98 18.2614C15.98 18.2657 15.98 18.2701 15.98 18.2744C15.98 18.2787 15.98 18.2832 15.98 18.2875C15.98 18.2919 15.98 18.2962 15.98 18.3007C15.98 18.305 15.98 18.3095 15.98 18.3139C15.98 18.3184 15.98 18.3229 15.98 18.3274C15.98 18.3317 15.98 18.3362 15.98 18.3407C15.98 18.3453 15.98 18.3498 15.98 18.3543C15.98 18.3588 15.98 18.3634 15.98 18.3679C15.98 18.3725 15.98 18.377 15.98 18.3816C15.98 18.3862 15.98 18.3909 15.98 18.3955C15.98 18.4001 15.98 18.4047 15.98 18.4094C15.98 18.414 15.98 18.4187 15.98 18.4234C15.98 18.428 15.98 18.4328 15.98 18.4375C15.98 18.4421 15.98 18.4469 15.98 18.4517C15.98 18.4564 15.98 18.4612 15.98 18.4659C15.98 18.4707 15.98 18.4755 15.98 18.4804C15.98 18.4851 15.98 18.4899 15.98 18.4948C15.98 18.4997 15.98 18.5044 15.98 18.5093C15.98 18.5142 15.98 18.5191 15.98 18.524C15.98 18.5289 15.98 18.5338 15.98 18.5387C15.98 18.5436 15.98 18.5486 15.98 18.5535C15.98 18.5586 15.98 18.5634 15.98 18.5685C15.98 18.5735 15.98 18.5785 15.98 18.5836C15.98 18.5886 15.98 18.5936 15.98 18.5987C15.98 18.6037 15.98 18.6087 15.98 18.6139C15.98 18.6189 15.98 18.6241 15.98 18.6293C15.98 18.6343 15.98 18.6395 15.98 18.6446C15.98 18.6498 15.98 18.655 15.98 18.6601C15.98 18.6653 15.98 18.6705 15.98 18.6758C15.98 18.681 15.98 18.6863 15.98 18.6914C15.98 18.6967 15.98 18.702 15.98 18.7073C15.98 18.7125 15.98 18.7178 15.98 18.7232C15.98 18.7286 15.98 18.7339 15.98 18.7392C15.98 18.7446 15.98 18.7499 15.98 18.7553C15.98 18.7606 15.98 18.7661 15.98 18.7715C15.98 18.777 15.98 18.7824 15.98 18.7878C15.98 18.7933 15.98 18.7987 15.98 18.8042C15.98 18.8097 15.98 18.8152 15.98 18.8208C15.98 18.8262 15.98 18.8318 15.98 18.8374C15.98 18.8428 15.98 18.8484 15.98 18.8539C15.98 18.8597 15.98 18.8652 15.98 18.8708C15.98 18.8764 15.98 18.8821 15.98 18.8877C15.98 18.8934 15.98 18.8991 15.98 18.9047C15.98 18.9104 15.98 18.9161 15.98 18.9218C15.98 18.9275 15.98 18.9332 15.98 18.9391C15.98 18.9448 15.98 18.9505 15.98 18.9564C15.98 18.9622 15.98 18.9679 15.98 18.9738C15.98 18.9796 15.98 18.9855 15.98 18.9913C15.98 18.9972 15.98 19.003 15.98 19.0088C15.98 19.0148 15.98 19.0207 15.98 19.0267C15.98 19.0325 15.98 19.0385 15.98 19.0445C15.98 19.0505 15.98 19.0564 15.98 19.0624C15.98 19.0684 15.98 19.0744 15.98 19.0804C15.98 19.0865 15.98 19.0925 15.98 19.0986C15.98 19.1046 15.98 19.1107 15.98 19.1168C15.98 19.123 15.98 19.1291 15.98 19.1352C15.98 19.1413 15.98 19.1474 15.98 19.1537C15.98 19.1598 15.98 19.1661 15.98 19.1722C15.98 19.1784 15.98 19.1847 15.98 19.1908C15.98 19.1971 15.98 19.2033 15.98 19.2097C15.98 19.216 15.98 19.2222 15.98 19.2285C15.98 19.2349 15.98 19.2411 15.98 19.2475C15.98 19.2539 15.98 19.2603 15.98 19.2667C15.98 19.273 15.98 19.2795 15.98 19.2859C15.98 19.2923 15.98 19.2987 15.98 19.3052C15.98 19.3116 15.98 19.3181 15.98 19.3246C15.98 19.331 15.98 19.3376 15.98 19.3441C15.98 19.3506 15.98 19.3571 15.98 19.3638C15.98 19.3703 15.98 19.3769 15.98 19.3835C15.98 19.3902 15.98 19.3967 15.98 19.4034C15.98 19.41 15.98 19.4167 15.98 19.4234C15.98 19.43 15.98 19.4367 15.98 19.4435C15.98 19.4502 15.98 19.4568 15.98 19.4636C15.98 19.4704 15.98 19.4771 15.98 19.4839C15.98 19.4907 15.98 19.4975 15.98 19.5043C15.98 19.5112 15.98 19.518 15.98 19.5248C15.98 19.5318 15.98 19.5386 15.98 19.5455C15.98 19.5524 15.98 19.5594 15.98 19.5663C15.98 19.5732 15.98 19.5802 15.98 19.5871C15.98 19.5941 15.98 19.6011 15.98 19.6081C15.98 19.6151 15.98 19.6222 15.98 19.6291C15.98 19.6362 15.98 19.6433 15.98 19.6504C15.98 19.6574 15.98 19.6646 15.98 19.6717C15.98 19.6788 15.98 19.686 15.98 19.6932C15.98 19.7003 15.98 19.7075 15.98 19.7147C15.98 19.7219 15.98 19.7291 15.98 19.7363C15.98 19.7437 15.98 19.7509 15.98 19.7581C15.98 19.7654 15.98 19.7728 15.98 19.78C15.98 19.7873 15.98 19.7947 15.98 19.802C15.98 19.8093 15.98 19.8168 15.98 19.8242C15.98 19.8315 15.98 19.839 15.98 19.8463C15.98 19.8538 15.98 19.8613 15.98 19.8688C15.98 19.8763 15.98 19.8837 15.98 19.8912C15.98 19.8987 15.98 19.9063 15.98 19.9138C15.98 19.9214 15.98 19.9289 15.98 19.9365C15.98 19.9441 15.98 19.9517 15.98 19.9594C15.98 19.967 15.98 19.9746 15.98 19.9823C15.98 19.99 15.98 19.9976 15.98 20.0053C15.98 20.0131 15.98 20.0208 15.98 20.0284C15.98 20.0362 15.98 20.0441 15.98 20.0518C15.98 20.0596 15.98 20.0673 15.98 20.0752C15.98 20.083 15.98 20.0909 15.98 20.0988C15.98 20.1066 15.98 20.1145 15.98 20.1224C15.98 20.1303 15.98 20.1382 15.98 20.1462C15.98 20.1541 15.98 20.1621 15.98 20.17C15.98 20.178 15.98 20.1861 15.98 20.1941C15.98 20.2021 15.98 20.2101 15.98 20.2182C15.98 20.2263 15.98 20.2343 15.98 20.2425C15.98 20.2505 15.98 20.2587 15.98 20.2668C15.98 20.275 15.98 20.2832 15.98 20.2913C15.98 20.2995 15.98 20.3078 15.98 20.3159C15.98 20.3242 15.98 20.3324 15.98 20.3407C15.98 20.349 15.98 20.3573 15.98 20.3656C15.98 20.3739 15.98 20.3823 15.98 20.3906C15.98 20.3989 15.98 20.4073 15.98 20.4158C15.98 20.4241 15.98 20.4325 15.98 20.4409C15.98 20.4494 15.98 20.4578 15.98 20.4664C15.98 20.4748 15.98 20.4832 15.98 20.4918C15.98 20.5004 15.98 20.5088 15.98 20.5174C15.98 20.5259 15.98 20.5345 15.98 20.5432C15.98 20.5518 15.98 20.5603 15.98 20.569C15.98 20.5776 15.98 20.5863 15.98 20.595C15.98 20.6037 15.98 20.6124 15.98 20.6211C15.98 20.6298 15.98 20.6385 15.98 20.6474C15.98 20.6561 15.98 20.6649 15.98 20.6738C15.98 20.6825 15.98 20.6913 15.98 20.7003C15.98 20.7091 15.98 20.718 15.98 20.7268C15.98 20.7358 15.98 20.7446 15.98 20.7536C15.98 20.7626 15.98 20.7715 15.98 20.7805C15.98 20.7895 15.98 20.7985 15.98 20.8074C15.98 20.8164 15.98 20.8255 15.98 20.8346C15.98 20.8436 15.98 20.8527 15.98 20.8618C15.98 20.871 15.98 20.8801 15.98 20.8892C15.98 20.8984 15.98 20.9075 15.98 20.9168C15.98 20.9259 15.98 20.9352 15.98 20.9444C15.98 20.9536 15.98 20.9629 15.98 20.9721C15.98 20.9815 15.98 20.9908 15.98 21.0002C15.98 21.0094 15.98 21.0188 15.98 21.0282C15.98 21.0376 15.98 21.0469 15.98 21.0563C15.98 21.0657 15.98 21.0751 15.98 21.0846C15.98 21.094 15.98 21.1035 15.98 21.113C15.98 21.1226 15.98 21.1321 15.98 21.1416C15.98 21.1511 15.98 21.1606 15.98 21.1703C15.98 21.1798 15.98 21.1895 15.98 21.1991C15.98 21.2088 15.98 21.2184 15.98 21.2281C15.98 21.2378 15.98 21.2474 15.98 21.2572C15.98 21.2669 15.98 21.2766 15.98 21.2864C15.98 21.2961 15.98 21.3059 15.98 21.3158C15.98 21.3256 15.98 21.3354 15.98 21.3452C15.98 21.3551 15.98 21.3649 15.98 21.3748C15.98 21.3848 15.98 21.3947 15.98 21.4046C15.98 21.4146 15.98 21.4245 15.98 21.4345C15.98 21.4445 15.98 21.4545 15.98 21.4646C15.98 21.4745 15.98 21.4846 15.98 21.4947C15.98 21.5049 15.98 21.5149 15.98 21.525C15.98 21.5352 15.98 21.5452 15.98 21.5554C15.98 21.5656 15.98 21.5758 15.98 21.586C15.98 21.5962 15.98 21.6064 15.98 21.6168C15.98 21.627 15.98 21.6373 15.98 21.6477C15.98 21.6579 15.98 21.6682 15.98 21.6785C15.98 21.6889 15.98 21.6993 15.98 21.7097C15.98 21.7201 15.98 21.7305 15.98 21.741C15.98 21.7514 15.98 21.7619 15.98 21.7724C15.98 21.7828 15.98 21.7933 15.98 21.8039C15.98 21.8144 15.98 21.825 15.98 21.8356C15.98 21.8461 15.98 21.8567 15.98 21.8674C15.98 21.878 15.98 21.8886 15.98 21.8994C15.98 21.91 15.98 21.9207 15.98 21.9314C15.98 21.9421 15.98 21.9528 15.98 21.9636C15.98 21.9745 15.98 21.9852 15.98 21.9961C15.98 22.0068 15.98 22.0177 15.98 22.0286C15.98 22.0393 15.98 22.0502 15.98 22.0612C15.98 22.0721 15.98 22.083 15.98 22.094C15.98 22.1049 15.98 22.1159 15.98 22.1269C15.98 22.1379 15.98 22.149 15.98 22.16C15.98 22.171 15.98 22.1821 15.98 22.1932C15.98 22.2043 15.98 22.2155 15.98 22.2266C15.98 22.2378 15.98 22.2489 15.98 22.2601C15.98 22.2712 15.98 22.2825 15.98 22.2937C15.98 22.3049 15.98 22.3162 15.98 22.3275C15.98 22.3388 15.98 22.3501 15.98 22.3614C15.98 22.3728 15.98 22.3841 15.98 22.3955C15.98 22.4069 15.98 22.4184 15.98 22.4298C15.98 22.4412 15.98 22.4526 15.98 22.4641C15.98 22.4756 15.98 22.487 15.98 22.4986C15.98 22.5102 15.98 22.5217 15.98 22.5333C15.98 22.5448 15.98 22.5564 15.98 22.5681C15.98 22.5797 15.98 22.5914 15.98 22.6031C15.98 22.6148 15.98 22.6264 15.98 22.6381C15.98 22.6498 15.98 22.6615 15.98 22.6734C15.98 22.6851 15.98 22.6969 15.98 22.7087C15.98 22.7206 15.98 22.7324 15.98 22.7442C15.98 22.7562 15.98 22.768 15.98 22.78C15.98 22.7918 15.98 22.8038 15.98 22.8158C15.98 22.8277 15.98 22.8397 15.98 22.8518C15.98 22.8638 15.98 22.8757 15.98 22.8878C15.98 22.8999 15.98 22.9121 15.98 22.9242C15.98 22.9363 15.98 22.9484 15.98 22.9606C15.98 22.9727 15.98 22.9849 15.98 22.9972C15.98 23.0093 15.98 23.0215 15.98 23.0339C15.98 23.0461 15.98 23.0584 15.98 23.0708C15.98 23.083 15.98 23.0954 15.98 23.1078C15.98 23.1201 15.98 23.1325 15.98 23.1449C15.98 23.1573 15.98 23.1698 15.98 23.1821C15.98 23.1947 15.98 23.2072 15.98 23.2197C15.98 23.2322 15.98 23.2447 15.98 23.2574C15.98 23.2699 15.98 23.2825 15.98 23.295C15.98 23.3077 15.98 23.3203 15.98 23.333C15.98 23.3456 15.98 23.3584 15.98 23.371C15.98 23.3838 15.98 23.3965 15.98 23.4093C15.98 23.422 15.98 23.4348 15.98 23.4476C15.98 23.4605 15.98 23.4733 15.98 23.4862C15.98 23.499 15.98 23.5119 15.98 23.5249C15.98 23.5378 15.98 23.5507 15.98 23.5638C15.98 23.5767 15.98 23.5897 15.98 23.6027C15.98 23.6157 15.98 23.6288 15.98 23.6418C15.98 23.6549 15.98 23.6681 15.98 23.6811C15.98 23.6943 15.98 23.7074 15.98 23.7206C15.98 23.7338 15.98 23.747 15.98 23.7603C15.98 23.7735 15.98 23.7867 15.98 23.8H18.02C18.02 23.7867 18.02 23.7735 18.02 23.7603C18.02 23.747 18.02 23.7338 18.02 23.7206C18.02 23.7074 18.02 23.6943 18.02 23.6811C18.02 23.6681 18.02 23.6549 18.02 23.6418C18.02 23.6288 18.02 23.6157 18.02 23.6027C18.02 23.5897 18.02 23.5767 18.02 23.5638C18.02 23.5507 18.02 23.5378 18.02 23.5249C18.02 23.5119 18.02 23.499 18.02 23.4862C18.02 23.4733 18.02 23.4605 18.02 23.4476C18.02 23.4348 18.02 23.422 18.02 23.4093C18.02 23.3965 18.02 23.3838 18.02 23.371C18.02 23.3584 18.02 23.3456 18.02 23.333C18.02 23.3203 18.02 23.3077 18.02 23.295C18.02 23.2825 18.02 23.2699 18.02 23.2574C18.02 23.2447 18.02 23.2322 18.02 23.2197C18.02 23.2072 18.02 23.1947 18.02 23.1821C18.02 23.1698 18.02 23.1573 18.02 23.1449C18.02 23.1325 18.02 23.1201 18.02 23.1078C18.02 23.0954 18.02 23.083 18.02 23.0708C18.02 23.0584 18.02 23.0461 18.02 23.0339C18.02 23.0215 18.02 23.0093 18.02 22.9972C18.02 22.9849 18.02 22.9727 18.02 22.9606C18.02 22.9484 18.02 22.9363 18.02 22.9242C18.02 22.9121 18.02 22.8999 18.02 22.8878C18.02 22.8757 18.02 22.8638 18.02 22.8518C18.02 22.8397 18.02 22.8277 18.02 22.8158C18.02 22.8038 18.02 22.7918 18.02 22.78C18.02 22.768 18.02 22.7562 18.02 22.7442C18.02 22.7324 18.02 22.7206 18.02 22.7087C18.02 22.6969 18.02 22.6851 18.02 22.6734C18.02 22.6615 18.02 22.6498 18.02 22.6381C18.02 22.6264 18.02 22.6148 18.02 22.6031C18.02 22.5914 18.02 22.5797 18.02 22.5681C18.02 22.5564 18.02 22.5448 18.02 22.5333C18.02 22.5217 18.02 22.5102 18.02 22.4986C18.02 22.487 18.02 22.4756 18.02 22.4641C18.02 22.4526 18.02 22.4412 18.02 22.4298C18.02 22.4184 18.02 22.4069 18.02 22.3955C18.02 22.3841 18.02 22.3728 18.02 22.3614C18.02 22.3501 18.02 22.3388 18.02 22.3275C18.02 22.3162 18.02 22.3049 18.02 22.2937C18.02 22.2825 18.02 22.2712 18.02 22.2601C18.02 22.2489 18.02 22.2378 18.02 22.2266C18.02 22.2155 18.02 22.2043 18.02 22.1932C18.02 22.1821 18.02 22.171 18.02 22.16C18.02 22.149 18.02 22.1379 18.02 22.1269C18.02 22.1159 18.02 22.1049 18.02 22.094C18.02 22.083 18.02 22.0721 18.02 22.0612C18.02 22.0502 18.02 22.0393 18.02 22.0286C18.02 22.0177 18.02 22.0068 18.02 21.9961C18.02 21.9852 18.02 21.9745 18.02 21.9636C18.02 21.9528 18.02 21.9421 18.02 21.9314C18.02 21.9207 18.02 21.91 18.02 21.8994C18.02 21.8886 18.02 21.878 18.02 21.8674C18.02 21.8567 18.02 21.8461 18.02 21.8356C18.02 21.825 18.02 21.8144 18.02 21.8039C18.02 21.7933 18.02 21.7828 18.02 21.7724C18.02 21.7619 18.02 21.7514 18.02 21.741C18.02 21.7305 18.02 21.7201 18.02 21.7097C18.02 21.6993 18.02 21.6889 18.02 21.6785C18.02 21.6682 18.02 21.6579 18.02 21.6477C18.02 21.6373 18.02 21.627 18.02 21.6168C18.02 21.6064 18.02 21.5962 18.02 21.586C18.02 21.5758 18.02 21.5656 18.02 21.5554C18.02 21.5452 18.02 21.5352 18.02 21.525C18.02 21.5149 18.02 21.5049 18.02 21.4947C18.02 21.4846 18.02 21.4745 18.02 21.4646C18.02 21.4545 18.02 21.4445 18.02 21.4345C18.02 21.4245 18.02 21.4146 18.02 21.4046C18.02 21.3947 18.02 21.3848 18.02 21.3748C18.02 21.3649 18.02 21.3551 18.02 21.3452C18.02 21.3354 18.02 21.3256 18.02 21.3158C18.02 21.3059 18.02 21.2961 18.02 21.2864C18.02 21.2766 18.02 21.2669 18.02 21.2572C18.02 21.2474 18.02 21.2378 18.02 21.2281C18.02 21.2184 18.02 21.2088 18.02 21.1991C18.02 21.1895 18.02 21.1798 18.02 21.1703C18.02 21.1606 18.02 21.1511 18.02 21.1416C18.02 21.1321 18.02 21.1226 18.02 21.113C18.02 21.1035 18.02 21.094 18.02 21.0846C18.02 21.0751 18.02 21.0657 18.02 21.0563C18.02 21.0469 18.02 21.0376 18.02 21.0282C18.02 21.0188 18.02 21.0094 18.02 21.0002C18.02 20.9908 18.02 20.9815 18.02 20.9721C18.02 20.9629 18.02 20.9536 18.02 20.9444C18.02 20.9352 18.02 20.9259 18.02 20.9168C18.02 20.9075 18.02 20.8984 18.02 20.8892C18.02 20.8801 18.02 20.871 18.02 20.8618C18.02 20.8527 18.02 20.8436 18.02 20.8346C18.02 20.8255 18.02 20.8164 18.02 20.8074C18.02 20.7985 18.02 20.7895 18.02 20.7805C18.02 20.7715 18.02 20.7626 18.02 20.7536C18.02 20.7446 18.02 20.7358 18.02 20.7268C18.02 20.718 18.02 20.7091 18.02 20.7003C18.02 20.6913 18.02 20.6825 18.02 20.6738C18.02 20.6649 18.02 20.6561 18.02 20.6474C18.02 20.6385 18.02 20.6298 18.02 20.6211C18.02 20.6124 18.02 20.6037 18.02 20.595C18.02 20.5863 18.02 20.5776 18.02 20.569C18.02 20.5603 18.02 20.5518 18.02 20.5432C18.02 20.5345 18.02 20.5259 18.02 20.5174C18.02 20.5088 18.02 20.5004 18.02 20.4918C18.02 20.4832 18.02 20.4748 18.02 20.4664C18.02 20.4578 18.02 20.4494 18.02 20.4409C18.02 20.4325 18.02 20.4241 18.02 20.4158C18.02 20.4073 18.02 20.3989 18.02 20.3906C18.02 20.3823 18.02 20.3739 18.02 20.3656C18.02 20.3573 18.02 20.349 18.02 20.3407C18.02 20.3324 18.02 20.3242 18.02 20.3159C18.02 20.3078 18.02 20.2995 18.02 20.2913C18.02 20.2832 18.02 20.275 18.02 20.2668C18.02 20.2587 18.02 20.2505 18.02 20.2425C18.02 20.2343 18.02 20.2263 18.02 20.2182C18.02 20.2101 18.02 20.2021 18.02 20.1941C18.02 20.1861 18.02 20.178 18.02 20.17C18.02 20.1621 18.02 20.1541 18.02 20.1462C18.02 20.1382 18.02 20.1303 18.02 20.1224C18.02 20.1145 18.02 20.1066 18.02 20.0988C18.02 20.0909 18.02 20.083 18.02 20.0752C18.02 20.0673 18.02 20.0596 18.02 20.0518C18.02 20.0441 18.02 20.0362 18.02 20.0284C18.02 20.0208 18.02 20.0131 18.02 20.0053C18.02 19.9976 18.02 19.99 18.02 19.9823C18.02 19.9746 18.02 19.967 18.02 19.9594C18.02 19.9517 18.02 19.9441 18.02 19.9365C18.02 19.9289 18.02 19.9214 18.02 19.9138C18.02 19.9063 18.02 19.8987 18.02 19.8912C18.02 19.8837 18.02 19.8763 18.02 19.8688C18.02 19.8613 18.02 19.8538 18.02 19.8463C18.02 19.839 18.02 19.8315 18.02 19.8242C18.02 19.8168 18.02 19.8093 18.02 19.802C18.02 19.7947 18.02 19.7873 18.02 19.78C18.02 19.7728 18.02 19.7654 18.02 19.7581C18.02 19.7509 18.02 19.7437 18.02 19.7363C18.02 19.7291 18.02 19.7219 18.02 19.7147C18.02 19.7075 18.02 19.7003 18.02 19.6932C18.02 19.686 18.02 19.6788 18.02 19.6717C18.02 19.6646 18.02 19.6574 18.02 19.6504C18.02 19.6433 18.02 19.6362 18.02 19.6291C18.02 19.6222 18.02 19.6151 18.02 19.6081C18.02 19.6011 18.02 19.5941 18.02 19.5871C18.02 19.5802 18.02 19.5732 18.02 19.5663C18.02 19.5594 18.02 19.5524 18.02 19.5455C18.02 19.5386 18.02 19.5318 18.02 19.5248C18.02 19.518 18.02 19.5112 18.02 19.5043C18.02 19.4975 18.02 19.4907 18.02 19.4839C18.02 19.4771 18.02 19.4704 18.02 19.4636C18.02 19.4568 18.02 19.4502 18.02 19.4435C18.02 19.4367 18.02 19.43 18.02 19.4234C18.02 19.4167 18.02 19.41 18.02 19.4034C18.02 19.3967 18.02 19.3902 18.02 19.3835C18.02 19.3769 18.02 19.3703 18.02 19.3638C18.02 19.3571 18.02 19.3506 18.02 19.3441C18.02 19.3376 18.02 19.331 18.02 19.3246C18.02 19.3181 18.02 19.3116 18.02 19.3052C18.02 19.2987 18.02 19.2923 18.02 19.2859C18.02 19.2795 18.02 19.273 18.02 19.2667C18.02 19.2603 18.02 19.2539 18.02 19.2475C18.02 19.2411 18.02 19.2349 18.02 19.2285C18.02 19.2222 18.02 19.216 18.02 19.2097C18.02 19.2033 18.02 19.1971 18.02 19.1908C18.02 19.1847 18.02 19.1784 18.02 19.1722C18.02 19.1661 18.02 19.1598 18.02 19.1537C18.02 19.1474 18.02 19.1413 18.02 19.1352C18.02 19.1291 18.02 19.123 18.02 19.1168C18.02 19.1107 18.02 19.1046 18.02 19.0986C18.02 19.0925 18.02 19.0865 18.02 19.0804C18.02 19.0744 18.02 19.0684 18.02 19.0624C18.02 19.0564 18.02 19.0505 18.02 19.0445C18.02 19.0385 18.02 19.0325 18.02 19.0267C18.02 19.0207 18.02 19.0148 18.02 19.0088C18.02 19.003 18.02 18.9972 18.02 18.9913C18.02 18.9855 18.02 18.9796 18.02 18.9738C18.02 18.9679 18.02 18.9622 18.02 18.9564C18.02 18.9505 18.02 18.9448 18.02 18.9391C18.02 18.9332 18.02 18.9275 18.02 18.9218C18.02 18.9161 18.02 18.9104 18.02 18.9047C18.02 18.8991 18.02 18.8934 18.02 18.8877C18.02 18.8821 18.02 18.8764 18.02 18.8708C18.02 18.8652 18.02 18.8597 18.02 18.8539C18.02 18.8484 18.02 18.8428 18.02 18.8374C18.02 18.8318 18.02 18.8262 18.02 18.8208C18.02 18.8152 18.02 18.8097 18.02 18.8042C18.02 18.7987 18.02 18.7933 18.02 18.7878C18.02 18.7824 18.02 18.777 18.02 18.7715C18.02 18.7661 18.02 18.7606 18.02 18.7553C18.02 18.7499 18.02 18.7446 18.02 18.7392C18.02 18.7339 18.02 18.7286 18.02 18.7232C18.02 18.7178 18.02 18.7125 18.02 18.7073C18.02 18.702 18.02 18.6967 18.02 18.6914C18.02 18.6863 18.02 18.681 18.02 18.6758C18.02 18.6705 18.02 18.6653 18.02 18.6601C18.02 18.655 18.02 18.6498 18.02 18.6446C18.02 18.6395 18.02 18.6343 18.02 18.6293C18.02 18.6241 18.02 18.6189 18.02 18.6139C18.02 18.6087 18.02 18.6037 18.02 18.5987C18.02 18.5936 18.02 18.5886 18.02 18.5836C18.02 18.5785 18.02 18.5735 18.02 18.5685C18.02 18.5634 18.02 18.5586 18.02 18.5535C18.02 18.5486 18.02 18.5436 18.02 18.5387C18.02 18.5338 18.02 18.5289 18.02 18.524C18.02 18.5191 18.02 18.5142 18.02 18.5093C18.02 18.5044 18.02 18.4997 18.02 18.4948C18.02 18.4899 18.02 18.4851 18.02 18.4804C18.02 18.4755 18.02 18.4707 18.02 18.4659C18.02 18.4612 18.02 18.4564 18.02 18.4517C18.02 18.4469 18.02 18.4421 18.02 18.4375C18.02 18.4328 18.02 18.428 18.02 18.4234C18.02 18.4187 18.02 18.414 18.02 18.4094C18.02 18.4047 18.02 18.4001 18.02 18.3955C18.02 18.3909 18.02 18.3862 18.02 18.3816C18.02 18.377 18.02 18.3725 18.02 18.3679C18.02 18.3634 18.02 18.3588 18.02 18.3543C18.02 18.3498 18.02 18.3453 18.02 18.3407C18.02 18.3362 18.02 18.3317 18.02 18.3274C18.02 18.3229 18.02 18.3184 18.02 18.3139C18.02 18.3095 18.02 18.305 18.02 18.3007C18.02 18.2962 18.02 18.2919 18.02 18.2875C18.02 18.2832 18.02 18.2787 18.02 18.2744C18.02 18.2701 18.02 18.2657 18.02 18.2614C18.02 18.257 18.02 18.2527 18.02 18.2485C18.02 18.2441 18.02 18.2399 18.02 18.2357C18.02 18.2313 18.02 18.2271 18.02 18.2229C18.02 18.2187 18.02 18.2145 18.02 18.2103C18.02 18.206 18.02 18.2018 18.02 18.1977C18.02 18.1935 18.02 18.1893 18.02 18.1852C18.02 18.181 18.02 18.1769 18.02 18.1729C18.02 18.1686 18.02 18.1646 18.02 18.1605C18.02 18.1564 18.02 18.1523 18.02 18.1482C18.02 18.1443 18.02 18.1402 18.02 18.1361C18.02 18.1322 18.02 18.1281 18.02 18.1242C18.02 18.1201 18.02 18.1161 18.02 18.1122C18.02 18.1083 18.02 18.1042 18.02 18.1002C18.02 18.0963 18.02 18.0925 18.02 18.0885C18.02 18.0846 18.02 18.0806 18.02 18.0768C18.02 18.0729 18.02 18.0691 18.02 18.0651C18.02 18.0613 18.02 18.0575 18.02 18.0536C18.02 18.0498 18.02 18.046 18.02 18.0422C18.02 18.0384 18.02 18.0345 18.02 18.0309C18.02 18.0271 18.02 18.0233 18.02 18.0196C18.02 18.0158 18.02 18.0121 18.02 18.0083C18.02 18.0046 18.02 18.001 18.02 17.9971C18.02 17.9935 18.02 17.9898 18.02 17.9861C18.02 17.9825 18.02 17.9789 18.02 17.9752C18.02 17.9716 18.02 17.9679 18.02 17.9644C18.02 17.9607 18.02 17.9572 18.02 17.9535C18.02 17.95 18.02 17.9464 18.02 17.9429C18.02 17.9392 18.02 17.9357 18.02 17.9321C18.02 17.9286 18.02 17.9252 18.02 17.9217C18.02 17.9181 18.02 17.9146 18.02 17.9112C18.02 17.9077 18.02 17.9043 18.02 17.9007C18.02 17.8973 18.02 17.8939 18.02 17.8905C18.02 17.887 18.02 17.8836 18.02 17.8802C18.02 17.8768 18.02 17.8734 18.02 17.8701C18.02 17.8667 18.02 17.8633 18.02 17.8601C18.02 17.8567 18.02 17.8533 18.02 17.85C18.02 17.8467 18.02 17.8433 18.02 17.8401C18.02 17.8368 18.02 17.8335 18.02 17.8303C18.02 17.827 18.02 17.8237 18.02 17.8205C18.02 17.8172 18.02 17.814 18.02 17.8108C18.02 17.8076 18.02 17.8043 18.02 17.8012C18.02 17.7979 18.02 17.7948 18.02 17.7916C18.02 17.7884 18.02 17.7853 18.02 17.7821C18.02 17.779 18.02 17.7759 18.02 17.7727C18.02 17.7696 18.02 17.7665 18.02 17.7635C18.02 17.7604 18.02 17.7572 18.02 17.7542C18.02 17.7511 18.02 17.7481 18.02 17.745C18.02 17.742 18.02 17.739 18.02 17.736C18.02 17.7329 18.02 17.7299 18.02 17.7269C18.02 17.7239 18.02 17.7209 18.02 17.7181C18.02 17.7151 18.02 17.7121 18.02 17.7091C18.02 17.7062 18.02 17.7032 18.02 17.7004C18.02 17.6974 18.02 17.6945 18.02 17.6917C18.02 17.6887 18.02 17.6858 18.02 17.683C18.02 17.6801 18.02 17.6773 18.02 17.6744C18.02 17.6716 18.02 17.6687 18.02 17.666C18.02 17.6631 18.02 17.6603 18.02 17.6576C18.02 17.6547 18.02 17.652 18.02 17.6491C18.02 17.6464 18.02 17.6435 18.02 17.6408C18.02 17.6381 18.02 17.6354 18.02 17.6327C18.02 17.6299 18.02 17.6272 18.02 17.6245C18.02 17.6218 18.02 17.6191 18.02 17.6165C18.02 17.6138 18.02 17.611 18.02 17.6085C18.02 17.6057 18.02 17.6032 18.02 17.6004C18.02 17.5978 18.02 17.5953 18.02 17.5927C18.02 17.59 18.02 17.5874 18.02 17.5848C18.02 17.5822 18.02 17.5796 18.02 17.577C18.02 17.5745 18.02 17.572 18.02 17.5694C18.02 17.5668 18.02 17.5644 18.02 17.5618C18.02 17.5594 18.02 17.5568 18.02 17.5543C18.02 17.5517 18.02 17.5493 18.02 17.5468C18.02 17.5444 18.02 17.542 18.02 17.5395C18.02 17.5371 18.02 17.5346 18.02 17.5322C18.02 17.5297 18.02 17.5273 18.02 17.5248C18.02 17.5225 18.02 17.5201 18.02 17.5177C18.02 17.5153 18.02 17.513 18.02 17.5105C18.02 17.5082 18.02 17.5059 18.02 17.5035C18.02 17.5012 18.02 17.4988 18.02 17.4965C18.02 17.4942 18.02 17.4919 18.02 17.4896C18.02 17.4873 18.02 17.485 18.02 17.4828C18.02 17.4805 18.02 17.4782 18.02 17.476C18.02 17.4737 18.02 17.4714 18.02 17.4692C18.02 17.467 18.02 17.4647 18.02 17.4625C18.02 17.4604 18.02 17.458 18.02 17.4559C18.02 17.4537 18.02 17.4515 18.02 17.4493C18.02 17.4472 18.02 17.445 18.02 17.4429C18.02 17.4408 18.02 17.4386 18.02 17.4364C18.02 17.4344 18.02 17.4322 18.02 17.4302C18.02 17.428 18.02 17.4259 18.02 17.4238C18.02 17.4217 18.02 17.4197 18.02 17.4176C18.02 17.4155 18.02 17.4134 18.02 17.4114C18.02 17.4094 18.02 17.4073 18.02 17.4053C18.02 17.4032 18.02 17.4013 18.02 17.3993C18.02 17.3972 18.02 17.3952 18.02 17.3933C18.02 17.3913 18.02 17.3894 18.02 17.3873C18.02 17.3854 18.02 17.3834 18.02 17.3815C18.02 17.3796 18.02 17.3775 18.02 17.3756C18.02 17.3737 18.02 17.3718 18.02 17.3699C18.02 17.368 18.02 17.3661 18.02 17.3642C18.02 17.3623 18.02 17.3604 18.02 17.3586C18.02 17.3567 18.02 17.3548 18.02 17.353C18.02 17.3511 18.02 17.3494 18.02 17.3475C18.02 17.3457 18.02 17.3438 18.02 17.342C18.02 17.3403 18.02 17.3384 18.02 17.3366C18.02 17.3348 18.02 17.3331 18.02 17.3313C18.02 17.3295 18.02 17.3278 18.02 17.326C18.02 17.3242 18.02 17.3224 18.02 17.3208C18.02 17.319 18.02 17.3173 18.02 17.3156C18.02 17.3139 18.02 17.3122 18.02 17.3105C18.02 17.3088 18.02 17.3071 18.02 17.3054C18.02 17.3037 18.02 17.302 18.02 17.3004C18.02 17.2988 18.02 17.2972 18.02 17.2955C18.02 17.2939 18.02 17.2923 18.02 17.2906C18.02 17.289 18.02 17.2874 18.02 17.2857C18.02 17.2841 18.02 17.2825 18.02 17.281C18.02 17.2793 18.02 17.2777 18.02 17.2762C18.02 17.2746 18.02 17.2731 18.02 17.2716C18.02 17.27 18.02 17.2685 18.02 17.2668C18.02 17.2653 18.02 17.2638 18.02 17.2623C18.02 17.2608 18.02 17.2593 18.02 17.2578C18.02 17.2564 18.02 17.2549 18.02 17.2534C18.02 17.2519 18.02 17.2504 18.02 17.2489C18.02 17.2474 18.02 17.246 18.02 17.2445C18.02 17.243 18.02 17.2417 18.02 17.2402C18.02 17.2388 18.02 17.2373 18.02 17.236C18.02 17.2346 18.02 17.2331 18.02 17.2317C18.02 17.2304 18.02 17.229 18.02 17.2275C18.02 17.2262 18.02 17.2248 18.02 17.2234C18.02 17.2221 18.02 17.2207 18.02 17.2194C18.02 17.218 18.02 17.2168 18.02 17.2154C18.02 17.2141 18.02 17.2127 18.02 17.2115C18.02 17.2101 18.02 17.2088 18.02 17.2075C18.02 17.2062 18.02 17.2049 18.02 17.2036C18.02 17.2024 18.02 17.2011 18.02 17.1998C18.02 17.1986 18.02 17.1973 18.02 17.1961C18.02 17.1947 18.02 17.1935 18.02 17.1923C18.02 17.1911 18.02 17.1898 18.02 17.1886C18.02 17.1874 18.02 17.1862 18.02 17.1851C18.02 17.1839 18.02 17.1826 18.02 17.1814C18.02 17.1803 18.02 17.1791 18.02 17.1779C18.02 17.1768 18.02 17.1756 18.02 17.1745C18.02 17.1733 18.02 17.1722 18.02 17.1709C18.02 17.1699 18.02 17.1688 18.02 17.1675C18.02 17.1665 18.02 17.1654 18.02 17.1643C18.02 17.1632 18.02 17.162 18.02 17.1609C18.02 17.1598 18.02 17.1587 18.02 17.1576C18.02 17.1565 18.02 17.1556 18.02 17.1545C18.02 17.1534 18.02 17.1523 18.02 17.1512C18.02 17.1503 18.02 17.1492 18.02 17.1481C18.02 17.1471 18.02 17.1461 18.02 17.1451C18.02 17.144 18.02 17.1431 18.02 17.142C18.02 17.141 18.02 17.1401 18.02 17.139C18.02 17.138 18.02 17.1371 18.02 17.136C18.02 17.135 18.02 17.1341 18.02 17.1331C18.02 17.1322 18.02 17.1312 18.02 17.1303C18.02 17.1293 18.02 17.1284 18.02 17.1274C18.02 17.1265 18.02 17.1255 18.02 17.1247C18.02 17.1238 18.02 17.1228 18.02 17.1218C18.02 17.121 18.02 17.1201 18.02 17.1191C18.02 17.1183 18.02 17.1174 18.02 17.1165C18.02 17.1156 18.02 17.1148 18.02 17.1138C18.02 17.113 18.02 17.1122 18.02 17.1112C18.02 17.1104 18.02 17.1096 18.02 17.1088C18.02 17.108 18.02 17.107 18.02 17.1062C18.02 17.1054 18.02 17.1046 18.02 17.1038C18.02 17.1029 18.02 17.1021 18.02 17.1013C18.02 17.1005 18.02 17.0997 18.02 17.099C18.02 17.0982 18.02 17.0974 18.02 17.0966C18.02 17.0959 18.02 17.0951 18.02 17.0942C18.02 17.0936 18.02 17.0927 18.02 17.0919C18.02 17.0912 18.02 17.0904 18.02 17.0898C18.02 17.0891 18.02 17.0883 18.02 17.0876C18.02 17.0868 18.02 17.0861 18.02 17.0854C18.02 17.0846 18.02 17.0839 18.02 17.0832C18.02 17.0825 18.02 17.0819 18.02 17.0812C18.02 17.0805 18.02 17.0797 18.02 17.079C18.02 17.0783 18.02 17.0776 18.02 17.0771C18.02 17.0764 18.02 17.0757 18.02 17.0751C18.02 17.0744 18.02 17.0737 18.02 17.0732C18.02 17.0725 18.02 17.0718 18.02 17.0711C18.02 17.0706 18.02 17.0699 18.02 17.0692C18.02 17.0687 18.02 17.068 18.02 17.0674C18.02 17.0668 18.02 17.0662 18.02 17.0655C18.02 17.065 18.02 17.0645 18.02 17.0638C18.02 17.0632 18.02 17.0627 18.02 17.062C18.02 17.0615 18.02 17.0609 18.02 17.0604C18.02 17.0598 18.02 17.0592 18.02 17.0586C18.02 17.0581 18.02 17.0575 18.02 17.057C18.02 17.0564 18.02 17.0559 18.02 17.0553C18.02 17.0548 18.02 17.0543 18.02 17.0537C18.02 17.0532 18.02 17.0528 18.02 17.0522C18.02 17.0517 18.02 17.0511 18.02 17.0507C18.02 17.0502 18.02 17.0496 18.02 17.0491C18.02 17.0487 18.02 17.0481 18.02 17.0477C18.02 17.0472 18.02 17.0468 18.02 17.0462C18.02 17.0457 18.02 17.0453 18.02 17.0449C18.02 17.0443 18.02 17.0439 18.02 17.0434C18.02 17.043 18.02 17.0426 18.02 17.042C18.02 17.0416 18.02 17.0424 18.02 17.042C18.02 17.0415 18.02 17.0398 18.02 17.0394C18.02 17.039 18.02 17.0398 18.02 17.0394C18.02 17.039 18.02 17.0374 18.02 17.037C18.02 17.0366 18.02 17.0374 18.02 17.037C18.02 17.0366 18.02 17.0349 18.02 17.0345C18.02 17.0341 18.02 17.0349 18.02 17.0345C18.02 17.0341 18.02 17.0326 18.02 17.0322C18.02 17.0318 18.02 17.0325 18.02 17.0322C18.02 17.0318 18.02 17.0303 18.02 17.03C18.02 17.0296 18.02 17.0305 18.02 17.03C18.02 17.0296 18.02 17.0283 18.02 17.0279C18.02 17.0276 18.02 17.0281 18.02 17.0279C18.02 17.0276 18.02 17.0262 18.02 17.026C18.02 17.0256 18.02 17.0262 18.02 17.026C18.02 17.0256 18.02 17.0243 18.02 17.0241C18.02 17.0238 18.02 17.0243 18.02 17.0241C18.02 17.0238 18.02 17.0226 18.02 17.0223C18.02 17.0219 18.02 17.0226 18.02 17.0223C18.02 17.022 18.02 17.0208 18.02 17.0205C18.02 17.0203 18.02 17.0208 18.02 17.0205C18.02 17.0203 18.02 17.0192 18.02 17.0189C18.02 17.0186 18.02 17.0192 18.02 17.0189C18.02 17.0186 18.02 17.0177 18.02 17.0174C18.02 17.0171 18.02 17.0177 18.02 17.0174C18.02 17.0173 18.02 17.0162 18.02 17.0159C18.02 17.0156 18.02 17.0141 18.02 17.0139C18.02 17.0137 18.02 17.0122 18.02 17.0121C18.02 17.012 18.02 17.0106 18.02 17.0105C18.02 17.0103 18.02 17.0091 18.02 17.0088C18.02 17.0087 18.02 17.0077 18.02 17.0075C18.02 17.0073 18.02 17.0061 18.02 17.006C18.02 17.0058 18.02 17.0061 18.02 17.006C18.02 17.0058 18.02 17.0048 18.02 17.0046C18.02 17.0045 18.02 17.0031 18.02 17.003C18.02 17.003 18.02 17.0018 18.02 17.0016C18.02 17.0015 18.02 17 18.02 17H17ZM18.02 17V10.2H15.98V17H18.02Z" fill="#FF9A2E"/>
</svg>
