<svg width="21" height="21" viewBox="0 0 21 21" fill="none" xmlns="http://www.w3.org/2000/svg">
<path d="M13.3151 16.0055C15.4112 15.7665 17.4707 15.2902 19.4509 14.5863C17.7739 12.7975 16.8473 10.4724 16.851 8.0625V7.25C16.851 5.52609 16.1398 3.87279 14.874 2.65381C13.6081 1.43482 11.8912 0.75 10.101 0.75C8.31079 0.75 6.5939 1.43482 5.32803 2.65381C4.06216 3.87279 3.351 5.52609 3.351 7.25V8.0625C3.35439 10.4725 2.42736 12.7977 0.75 14.5863C2.69963 15.2797 4.755 15.7618 6.88687 16.0055M13.3151 16.0055C11.1799 16.2494 9.02214 16.2494 6.88687 16.0055M13.3151 16.0055C13.4772 16.4929 13.5176 17.0102 13.4328 17.5154C13.348 18.0206 13.1406 18.4993 12.8273 18.9127C12.514 19.3261 12.1038 19.6624 11.6301 19.8942C11.1563 20.1261 10.6324 20.2469 10.101 20.2469C9.56958 20.2469 9.04566 20.1261 8.57191 19.8942C8.09816 19.6624 7.68796 19.3261 7.3747 18.9127C7.06144 18.4993 6.85398 18.0206 6.76921 17.5154C6.68444 17.0102 6.72476 16.4929 6.88687 16.0055" stroke="#A06BFF" stroke-width="1.5" stroke-linecap="round" stroke-linejoin="round"/>
</svg>
