<svg width="24" height="24" viewBox="0 0 24 24" fill="none" xmlns="http://www.w3.org/2000/svg">
<g clip-path="url(#clip0_28_1209)">
<path fill-rule="evenodd" clip-rule="evenodd" d="M12.0579 2.08071C11.774 1.95916 11.4499 1.97561 11.1797 2.12527C10.9096 2.27494 10.7237 2.54103 10.6762 2.8462C10.6285 3.15306 10.5523 3.34182 10.4597 3.49349C10.3595 3.65756 10.2107 3.82723 9.94645 4.0722C9.42523 4.55538 9.10938 5.13163 9.02355 5.754C8.93897 6.36723 9.08931 6.93974 9.34964 7.40886C9.84173 8.29556 10.8414 9 11.9028 9C13.2853 9 15 8.03365 15 6.19445C15 5.25053 14.5784 4.36498 14.054 3.68222C13.526 2.99456 12.8114 2.4033 12.0579 2.08071ZM11.3061 5.53892C11.616 5.25168 11.9181 4.93894 12.1589 4.5484C12.2671 4.65663 12.3711 4.77448 12.4678 4.90036C12.8255 5.3661 13 5.83302 13 6.19445C13 6.3907 12.914 6.57016 12.7195 6.72597C12.5127 6.89163 12.2117 7 11.9028 7C11.6877 7 11.3 6.80167 11.0984 6.43837C11.0119 6.28249 10.9888 6.14319 11.0048 6.02725C11.0195 5.92045 11.0782 5.75018 11.3061 5.53892ZM9 10C7.89543 10 7 10.8954 7 12V20C7 21.1046 7.89543 22 9 22H15C16.1046 22 17 21.1046 17 20V12C17 10.8954 16.1046 10 15 10H9ZM9 12H15V20H9V12Z" fill="#A06BFF"/>
</g>
<defs>
<clipPath id="clip0_28_1209">
<rect width="24" height="24" fill="white"/>
</clipPath>
</defs>
</svg>
