<svg width="49" height="49" viewBox="0 0 49 49" fill="none" xmlns="http://www.w3.org/2000/svg">
<path d="M19.9546 18.5121C19.5562 18.1137 18.9104 18.1137 18.5121 18.5121C18.1137 18.9104 18.1137 19.5562 18.5121 19.9546L19.9546 18.5121ZM23.3204 24.7629C23.7187 25.1612 24.3646 25.1612 24.7629 24.7629C25.1612 24.3646 25.1612 23.7187 24.7629 23.3204L23.3204 24.7629ZM24.7629 23.3204C24.3646 22.9221 23.7187 22.9221 23.3204 23.3204C22.9221 23.7187 22.9221 24.3646 23.3204 24.7629L24.7629 23.3204ZM28.1287 29.5712C28.527 29.9695 29.1729 29.9695 29.5712 29.5712C29.9695 29.1729 29.9695 28.527 29.5712 28.1287L28.1287 29.5712ZM24.7629 24.7629C25.1612 24.3646 25.1612 23.7187 24.7629 23.3204C24.3646 22.9221 23.7187 22.9221 23.3204 23.3204L24.7629 24.7629ZM18.5121 28.1287C18.1137 28.527 18.1137 29.1729 18.5121 29.5712C18.9104 29.9695 19.5562 29.9695 19.9546 29.5712L18.5121 28.1287ZM23.3204 23.3204C22.9221 23.7187 22.9221 24.3646 23.3204 24.7629C23.7187 25.1612 24.3646 25.1612 24.7629 24.7629L23.3204 23.3204ZM29.5712 19.9546C29.9695 19.5562 29.9695 18.9104 29.5712 18.5121C29.1729 18.1137 28.527 18.1137 28.1287 18.5121L29.5712 19.9546ZM18.5121 19.9546L23.3204 24.7629L24.7629 23.3204L19.9546 18.5121L18.5121 19.9546ZM23.3204 24.7629L28.1287 29.5712L29.5712 28.1287L24.7629 23.3204L23.3204 24.7629ZM24.0416 24.0416L23.3204 23.3204L23.3194 23.3213C23.3193 23.3214 23.3183 23.3225 23.3183 23.3225C23.3184 23.3224 23.3182 23.3226 23.3183 23.3225C23.3183 23.3225 23.3172 23.3236 23.3171 23.3237C23.3172 23.3236 23.317 23.3237 23.3171 23.3237C23.317 23.3237 23.3162 23.3245 23.3161 23.3246C23.3161 23.3247 23.3152 23.3256 23.3151 23.3257C23.315 23.3258 23.3142 23.3265 23.3141 23.3266C23.314 23.3267 23.3132 23.3276 23.313 23.3278C23.3129 23.3279 23.312 23.3288 23.3118 23.3289C23.3117 23.329 23.3107 23.3301 23.3106 23.3302C23.3108 23.33 23.3104 23.3304 23.3106 23.3302C23.3104 23.3304 23.3098 23.331 23.3096 23.3312C23.3098 23.331 23.3094 23.3313 23.3096 23.3312C23.3094 23.3313 23.3087 23.332 23.3086 23.3321C23.3088 23.3319 23.3085 23.3323 23.3086 23.3321C23.3085 23.3323 23.3078 23.333 23.3076 23.3332C23.3078 23.333 23.3074 23.3334 23.3076 23.3332C23.3074 23.3334 23.3066 23.3341 23.3064 23.3343C23.3066 23.3341 23.3062 23.3345 23.3064 23.3343C23.3062 23.3345 23.3055 23.3353 23.3053 23.3355C23.3056 23.3352 23.3051 23.3357 23.3053 23.3355C23.3051 23.3357 23.3042 23.3365 23.304 23.3367C23.3042 23.3365 23.3038 23.3369 23.304 23.3367C23.3038 23.3369 23.303 23.3378 23.3027 23.3381C23.303 23.3378 23.3025 23.3383 23.3027 23.3381C23.3025 23.3383 23.3015 23.3392 23.3013 23.3394C23.3015 23.3392 23.3011 23.3396 23.3013 23.3394C23.3011 23.3397 23.3002 23.3406 23.2999 23.3409C23.3002 23.3406 23.2996 23.3412 23.2999 23.3409C23.2997 23.3411 23.2986 23.3421 23.2984 23.3424C23.2986 23.3421 23.2982 23.3426 23.2984 23.3424C23.2981 23.3427 23.2971 23.3437 23.2968 23.3439C23.2971 23.3437 23.2965 23.3442 23.2968 23.3439C23.2965 23.3442 23.2954 23.3454 23.2951 23.3457C23.2954 23.3454 23.2948 23.346 23.2951 23.3457C23.2948 23.346 23.2936 23.3471 23.2934 23.3474C23.2936 23.3471 23.2931 23.3477 23.2934 23.3474C23.2931 23.3477 23.2919 23.3488 23.2915 23.3492C23.2918 23.3489 23.2912 23.3495 23.2915 23.3492C23.2911 23.3496 23.29 23.3508 23.2897 23.3511C23.2893 23.3514 23.289 23.3517 23.2886 23.3521C23.2884 23.3524 23.2881 23.3527 23.2877 23.3531C23.2873 23.3535 23.287 23.3538 23.2866 23.3541C23.2863 23.3544 23.286 23.3548 23.2857 23.3551C23.2853 23.3555 23.2849 23.3559 23.2845 23.3563C23.2842 23.3565 23.2838 23.3569 23.2835 23.3573C23.2831 23.3577 23.2828 23.358 23.2824 23.3584C23.282 23.3588 23.2816 23.3591 23.2812 23.3595C23.2809 23.3599 23.2805 23.3603 23.2801 23.3607C23.2797 23.3611 23.2793 23.3614 23.2789 23.3618C23.2785 23.3622 23.2781 23.3627 23.2777 23.3631C23.2773 23.3635 23.2769 23.3639 23.2765 23.3642C23.276 23.3647 23.2757 23.3651 23.2753 23.3655C23.2748 23.366 23.2744 23.3664 23.274 23.3667C23.2735 23.3672 23.2732 23.3676 23.2727 23.3681C23.2723 23.3685 23.2718 23.3689 23.2714 23.3693C23.271 23.3698 23.2705 23.3703 23.2701 23.3707C23.2696 23.3712 23.2691 23.3716 23.2686 23.3721C23.2683 23.3725 23.2678 23.373 23.2673 23.3735C23.2668 23.3739 23.2663 23.3744 23.2659 23.3749C23.2655 23.3753 23.265 23.3758 23.2645 23.3763C23.264 23.3767 23.2635 23.3773 23.263 23.3778C23.2625 23.3783 23.262 23.3788 23.2615 23.3792C23.261 23.3797 23.2606 23.3802 23.26 23.3808C23.2595 23.3813 23.259 23.3817 23.2585 23.3823C23.258 23.3828 23.2574 23.3834 23.2569 23.3839C23.2564 23.3843 23.2559 23.3849 23.2554 23.3854C23.2548 23.386 23.2542 23.3865 23.2537 23.387C23.2532 23.3876 23.2526 23.3882 23.2521 23.3887C23.2515 23.3892 23.2509 23.3898 23.2504 23.3904C23.2499 23.3909 23.2493 23.3915 23.2487 23.392C23.2482 23.3926 23.2476 23.3932 23.247 23.3938C23.2464 23.3943 23.2459 23.3949 23.2453 23.3955C23.2447 23.3961 23.244 23.3967 23.2434 23.3973C23.2429 23.3979 23.2423 23.3985 23.2417 23.399C23.241 23.3997 23.2405 23.4003 23.2399 23.4009C23.2392 23.4015 23.2386 23.4021 23.238 23.4028C23.2374 23.4034 23.2367 23.404 23.2361 23.4046C23.2355 23.4053 23.2348 23.406 23.2342 23.4065C23.2335 23.4072 23.2329 23.4079 23.2322 23.4086C23.2316 23.4091 23.2309 23.4098 23.2303 23.4105C23.2296 23.4112 23.2289 23.4118 23.2283 23.4125C23.2276 23.4132 23.2269 23.4139 23.2262 23.4145C23.2256 23.4152 23.2249 23.4159 23.2242 23.4166C23.2234 23.4173 23.2228 23.418 23.2221 23.4187C23.2213 23.4194 23.2207 23.4201 23.22 23.4208C23.2192 23.4216 23.2185 23.4222 23.2178 23.423C23.2171 23.4237 23.2163 23.4244 23.2157 23.4251C23.2149 23.4259 23.2141 23.4266 23.2134 23.4273C23.2127 23.4281 23.2119 23.4289 23.2111 23.4296C23.2104 23.4304 23.2097 23.4311 23.2089 23.4318C23.2082 23.4326 23.2074 23.4334 23.2066 23.4341C23.2058 23.4349 23.205 23.4358 23.2042 23.4366C23.2034 23.4373 23.2027 23.4381 23.2019 23.4389C23.201 23.4397 23.2003 23.4405 23.1995 23.4413C23.1986 23.4421 23.1979 23.4429 23.197 23.4438C23.1962 23.4445 23.1954 23.4454 23.1946 23.4462C23.1937 23.447 23.1929 23.4479 23.1921 23.4487C23.1912 23.4495 23.1904 23.4504 23.1895 23.4513C23.1887 23.452 23.1879 23.4529 23.187 23.4538C23.1861 23.4546 23.1853 23.4555 23.1844 23.4564C23.1835 23.4572 23.1827 23.4581 23.1817 23.4591C23.1808 23.4599 23.18 23.4608 23.1791 23.4617C23.1782 23.4626 23.1773 23.4635 23.1764 23.4643C23.1755 23.4653 23.1746 23.4662 23.1736 23.4671C23.1728 23.468 23.1718 23.469 23.1708 23.4699C23.17 23.4708 23.169 23.4717 23.1681 23.4727C23.1671 23.4737 23.1662 23.4745 23.1653 23.4755C23.1643 23.4765 23.1633 23.4774 23.1624 23.4784C23.1614 23.4793 23.1605 23.4803 23.1595 23.4813C23.1584 23.4823 23.1575 23.4833 23.1565 23.4843C23.1556 23.4852 23.1545 23.4863 23.1535 23.4872C23.1526 23.4882 23.1515 23.4893 23.1506 23.4902C23.1495 23.4913 23.1485 23.4922 23.1475 23.4933C23.1464 23.4943 23.1455 23.4953 23.1444 23.4964C23.1433 23.4974 23.1423 23.4985 23.1412 23.4995C23.1402 23.5006 23.1391 23.5017 23.138 23.5027C23.137 23.5038 23.1359 23.5048 23.1349 23.5059C23.1338 23.5069 23.1328 23.508 23.1317 23.5091C23.1305 23.5102 23.1295 23.5113 23.1283 23.5124C23.1273 23.5135 23.1262 23.5145 23.1251 23.5157C23.124 23.5168 23.1229 23.5179 23.1217 23.5191C23.1206 23.5201 23.1195 23.5213 23.1183 23.5224C23.1172 23.5236 23.116 23.5247 23.1149 23.5259C23.1137 23.527 23.1126 23.5282 23.1114 23.5294C23.1103 23.5305 23.1091 23.5317 23.108 23.5328C23.1068 23.534 23.1056 23.5351 23.1044 23.5364C23.1032 23.5375 23.102 23.5388 23.1008 23.5399C23.0996 23.5412 23.0984 23.5423 23.0972 23.5436C23.096 23.5447 23.0948 23.546 23.0935 23.5472C23.0924 23.5484 23.0911 23.5496 23.0899 23.5509C23.0886 23.5521 23.0874 23.5534 23.0861 23.5546C23.0849 23.5559 23.0836 23.5571 23.0824 23.5584C23.0811 23.5596 23.0798 23.561 23.0785 23.5622C23.0773 23.5635 23.0759 23.5648 23.0747 23.5661C23.0733 23.5674 23.0721 23.5687 23.0707 23.57C23.0695 23.5713 23.0681 23.5726 23.0668 23.574C23.0655 23.5752 23.0642 23.5766 23.0628 23.5779C23.0615 23.5793 23.0602 23.5806 23.0588 23.582C23.0575 23.5833 23.0561 23.5846 23.0548 23.586C23.0534 23.5873 23.052 23.5888 23.0506 23.5901C23.0493 23.5915 23.0478 23.5929 23.0465 23.5943C23.0451 23.5957 23.0437 23.5971 23.0423 23.5985C23.0409 23.5998 23.0395 23.6013 23.038 23.6027C23.0366 23.6042 23.0352 23.6055 23.0338 23.607C23.0324 23.6084 23.0309 23.6098 23.0295 23.6113C23.028 23.6127 23.0266 23.6142 23.0251 23.6157C23.0236 23.6172 23.0222 23.6186 23.0207 23.62C23.0192 23.6216 23.0177 23.623 23.0162 23.6246C23.0148 23.626 23.0132 23.6275 23.0118 23.629C23.0102 23.6305 23.0087 23.6321 23.0072 23.6336C23.0057 23.635 23.0042 23.6366 23.0026 23.6381C23.0011 23.6397 22.9996 23.6412 22.998 23.6427C22.9965 23.6443 22.9949 23.6459 22.9933 23.6474C22.9918 23.649 22.9901 23.6506 22.9886 23.6522C22.9871 23.6537 22.9854 23.6553 22.9838 23.657C22.9823 23.6585 22.9806 23.6601 22.979 23.6618C22.9775 23.6633 22.9758 23.6649 22.9742 23.6666C22.9725 23.6682 22.9709 23.6699 22.9693 23.6715C22.9676 23.6731 22.966 23.6748 22.9644 23.6764C22.9626 23.6781 22.961 23.6798 22.9594 23.6814C22.9576 23.6831 22.956 23.6848 22.9543 23.6865C22.9526 23.6881 22.9509 23.6899 22.9493 23.6915C22.9475 23.6932 22.9458 23.695 22.9441 23.6967C22.9424 23.6984 22.9406 23.7001 22.9389 23.7019C22.9372 23.7036 22.9354 23.7053 22.9337 23.7071C22.932 23.7088 22.9302 23.7105 22.9284 23.7124C22.9267 23.7141 22.9248 23.7159 22.9231 23.7176C22.9213 23.7195 22.9196 23.7212 22.9177 23.723C22.9159 23.7249 22.9142 23.7266 22.9123 23.7284C22.9105 23.7302 22.9087 23.7321 22.9069 23.7339C22.905 23.7357 22.9032 23.7376 22.9013 23.7395C22.8995 23.7413 22.8976 23.7431 22.8958 23.745C22.8939 23.7469 22.8921 23.7487 22.8901 23.7506C22.8883 23.7525 22.8864 23.7544 22.8845 23.7563C22.8826 23.7581 22.8807 23.7601 22.8788 23.762C22.8769 23.7639 22.8749 23.7658 22.873 23.7678C22.8711 23.7697 22.8692 23.7716 22.8672 23.7735C22.8653 23.7754 22.8633 23.7775 22.8614 23.7794C22.8594 23.7814 22.8574 23.7833 22.8554 23.7853C22.8535 23.7873 22.8515 23.7893 22.8495 23.7913C22.8475 23.7932 22.8455 23.7953 22.8435 23.7973C22.8415 23.7993 22.8395 23.8013 22.8374 23.8033C22.8354 23.8054 22.8334 23.8074 22.8313 23.8095C22.8293 23.8115 22.8272 23.8135 22.8251 23.8156C22.8231 23.8177 22.821 23.8198 22.819 23.8218C22.8169 23.8239 22.8147 23.826 22.8126 23.8281C22.8106 23.8302 22.8085 23.8323 22.8064 23.8344C22.8043 23.8365 22.8021 23.8386 22.7999 23.8408C22.7978 23.843 22.7957 23.8451 22.7936 23.8472C22.7914 23.8494 22.7893 23.8515 22.787 23.8537C22.7849 23.8558 22.7827 23.8581 22.7805 23.8603C22.7784 23.8624 22.7762 23.8646 22.774 23.8668C22.7718 23.869 22.7695 23.8712 22.7673 23.8734C22.7651 23.8756 22.7629 23.8779 22.7606 23.8802C22.7584 23.8824 22.7562 23.8846 22.7539 23.8869C22.7517 23.8891 22.7493 23.8914 22.747 23.8937C22.7448 23.8959 22.7425 23.8982 22.7402 23.9006C22.7379 23.9029 22.7356 23.9052 22.7333 23.9075C22.731 23.9098 22.7287 23.9121 22.7264 23.9144C22.7241 23.9167 22.7216 23.9191 22.7193 23.9214C22.717 23.9237 22.7146 23.9261 22.7122 23.9285C22.7099 23.9308 22.7075 23.9333 22.7051 23.9357C22.7028 23.938 22.7004 23.9404 22.698 23.9428C22.6956 23.9452 22.6932 23.9476 22.6907 23.9501C22.6883 23.9525 22.6859 23.9549 22.6835 23.9573C22.681 23.9598 22.6786 23.9622 22.6761 23.9647C22.6737 23.9671 22.6712 23.9696 22.6687 23.9721C22.6662 23.9746 22.6638 23.977 22.6613 23.9795C22.6588 23.982 22.6563 23.9845 22.6537 23.9871C22.6512 23.9896 22.6487 23.9921 22.6462 23.9946C22.6436 23.9972 22.6411 23.9997 22.6385 24.0023C22.636 24.0048 22.6334 24.0074 22.6308 24.01C22.6282 24.0126 22.6257 24.0151 22.6231 24.0177C22.6205 24.0203 22.6179 24.0229 22.6153 24.0255C22.6126 24.0282 22.61 24.0308 22.6074 24.0334C22.6047 24.0361 22.6021 24.0387 22.5994 24.0413C22.5968 24.0439 22.5941 24.0466 22.5914 24.0493C22.5888 24.0519 22.5861 24.0546 22.5835 24.0573C22.5808 24.06 22.5781 24.0627 22.5754 24.0654C22.5726 24.0682 22.5699 24.0709 22.5672 24.0736C22.5644 24.0763 22.5617 24.079 22.5589 24.0818C22.5562 24.0845 22.5535 24.0873 22.5507 24.0901C22.5479 24.0929 22.5452 24.0956 22.5424 24.0984C22.5396 24.1012 22.5367 24.104 22.5339 24.1068C22.5311 24.1096 22.5284 24.1124 22.5255 24.1153C22.5227 24.1181 22.5198 24.121 22.517 24.1238C22.5141 24.1266 22.5112 24.1295 22.5084 24.1323C22.5056 24.1352 22.5027 24.1381 22.4998 24.141C22.4969 24.1439 22.494 24.1467 22.491 24.1497C22.4882 24.1526 22.4853 24.1555 22.4823 24.1585C22.4794 24.1614 22.4764 24.1643 22.4734 24.1673C22.4706 24.1702 22.4676 24.1732 22.4646 24.1762C22.4616 24.1792 22.4586 24.1821 22.4557 24.1851C22.4527 24.1881 22.4497 24.1911 22.4466 24.1942C22.4436 24.1971 22.4407 24.2001 22.4376 24.2032C22.4346 24.2062 22.4315 24.2093 22.4284 24.2123C22.4254 24.2154 22.4223 24.2185 22.4192 24.2216C22.4162 24.2245 22.4131 24.2277 22.41 24.2308C22.4069 24.2339 22.4038 24.2369 22.4006 24.2401C22.3976 24.2432 22.3944 24.2464 22.3913 24.2494C22.3881 24.2526 22.385 24.2558 22.3818 24.259C22.3787 24.262 22.3755 24.2652 22.3724 24.2684C22.3691 24.2717 22.3659 24.2748 22.3628 24.278C22.3596 24.2812 22.3563 24.2845 22.3531 24.2876C22.3499 24.2909 22.3467 24.2941 22.3434 24.2973C22.3402 24.3006 22.3369 24.3039 22.3336 24.3071C22.3303 24.3104 22.3271 24.3137 22.3238 24.317C22.3205 24.3202 22.3172 24.3236 22.3139 24.3269C22.3106 24.3301 22.3073 24.3335 22.3039 24.3369C22.3006 24.3401 22.2973 24.3435 22.2939 24.3469C22.2905 24.3502 22.2872 24.3536 22.2838 24.357C22.2804 24.3603 22.2771 24.3637 22.2736 24.3672C22.2702 24.3705 22.2669 24.3739 22.2634 24.3774C22.26 24.3808 22.2566 24.3842 22.2531 24.3876C22.2497 24.3911 22.2462 24.3946 22.2427 24.398C22.2393 24.4015 22.2358 24.405 22.2324 24.4084C22.2289 24.4119 22.2253 24.4154 22.2219 24.4189C22.2183 24.4225 22.2149 24.4259 22.2113 24.4295C22.2077 24.433 22.2042 24.4366 22.2006 24.4401C22.1971 24.4437 22.1935 24.4473 22.1899 24.4508C22.1864 24.4544 22.1828 24.4579 22.1792 24.4616C22.1756 24.4652 22.172 24.4688 22.1683 24.4725C22.1647 24.476 22.1611 24.4797 22.1574 24.4833C22.1538 24.487 22.1501 24.4906 22.1465 24.4943C22.1428 24.4979 22.1392 24.5016 22.1354 24.5053C22.1318 24.509 22.128 24.5128 22.1244 24.5164C22.1206 24.5202 22.1169 24.5239 22.1131 24.5277C22.1095 24.5313 22.1057 24.5351 22.1019 24.5389C22.0981 24.5427 22.0944 24.5464 22.0906 24.5502C22.0868 24.554 22.083 24.5578 22.0792 24.5616C22.0754 24.5654 22.0716 24.5692 22.0677 24.573C22.0639 24.5769 22.06 24.5807 22.0562 24.5846C22.0523 24.5884 22.0485 24.5923 22.0446 24.5961C22.0407 24.6001 22.0368 24.6039 22.0329 24.6079C22.0291 24.6117 22.0251 24.6157 22.0212 24.6196C22.0173 24.6234 22.0134 24.6274 22.0094 24.6313C22.0054 24.6354 22.0015 24.6393 21.9975 24.6433C21.9936 24.6472 21.9895 24.6512 21.9856 24.6552C21.9816 24.6592 21.9775 24.6633 21.9736 24.6672C21.9695 24.6712 21.9655 24.6753 21.9615 24.6793C21.9574 24.6834 21.9534 24.6874 21.9492 24.6915C21.9452 24.6956 21.9412 24.6996 21.937 24.7037C21.9329 24.7079 21.9289 24.7119 21.9247 24.716C21.9206 24.7202 21.9164 24.7243 21.9123 24.7285C21.9082 24.7326 21.904 24.7367 21.8999 24.7409C21.8957 24.7451 21.8915 24.7492 21.8873 24.7535C21.8832 24.7576 21.8789 24.7618 21.8747 24.7661C21.8705 24.7703 21.8662 24.7745 21.862 24.7787C21.8578 24.783 21.8536 24.7872 21.8493 24.7914C21.845 24.7958 21.8408 24.8 21.8364 24.8043C21.8322 24.8086 21.8279 24.8129 21.8235 24.8172C21.8192 24.8215 21.8149 24.8259 21.8106 24.8302C21.8062 24.8345 21.8019 24.8389 21.7975 24.8433C21.7932 24.8476 21.7887 24.852 21.7844 24.8564C21.78 24.8608 21.7756 24.8652 21.7712 24.8695C21.7668 24.874 21.7624 24.8784 21.7579 24.8829C21.7534 24.8873 21.749 24.8917 21.7446 24.8962C21.7401 24.9007 21.7357 24.9051 21.7311 24.9096C21.7266 24.9142 21.7221 24.9187 21.7176 24.9232C21.7131 24.9276 21.7085 24.9322 21.704 24.9368C21.6995 24.9413 21.695 24.9458 21.6904 24.9504C21.6858 24.9549 21.6812 24.9595 21.6766 24.9642C21.6721 24.9687 21.6675 24.9733 21.6629 24.9779C21.6582 24.9825 21.6536 24.9871 21.6489 24.9919C21.6443 24.9965 21.6397 25.0011 21.635 25.0058C21.6303 25.0105 21.6256 25.0151 21.6209 25.0198C21.6162 25.0246 21.6115 25.0293 21.6068 25.034C21.6021 25.0387 21.5974 25.0434 21.5926 25.0482C21.5878 25.0529 21.5831 25.0576 21.5783 25.0624C21.5735 25.0672 21.5688 25.072 21.564 25.0768C21.5592 25.0816 21.5544 25.0864 21.5496 25.0912C21.5447 25.0961 21.5399 25.1009 21.535 25.1057C21.5301 25.1106 21.5253 25.1154 21.5204 25.1203C21.5155 25.1252 21.5106 25.1301 21.5057 25.135C21.5008 25.14 21.4959 25.1449 21.491 25.1498C21.4861 25.1547 21.4811 25.1597 21.4762 25.1646C21.4712 25.1696 21.4662 25.1746 21.4613 25.1795C21.4563 25.1845 21.4513 25.1895 21.4463 25.1945C21.4413 25.1995 21.4362 25.2046 21.4312 25.2096C21.4262 25.2146 21.4211 25.2197 21.416 25.2248C21.411 25.2298 21.4059 25.2349 21.4008 25.24C21.3957 25.2451 21.3906 25.2502 21.3855 25.2553C21.3803 25.2604 21.3752 25.2655 21.3701 25.2706C21.3649 25.2758 21.3597 25.281 21.3546 25.2861C21.3494 25.2913 21.3443 25.2965 21.3391 25.3017C21.3339 25.3069 21.3286 25.3122 21.3234 25.3174C21.3182 25.3226 21.3129 25.3279 21.3077 25.3331C21.3024 25.3383 21.2971 25.3436 21.2918 25.3489C21.2866 25.3542 21.2813 25.3595 21.276 25.3648C21.2707 25.3701 21.2653 25.3755 21.26 25.3808C21.2546 25.3861 21.2493 25.3914 21.244 25.3968C21.2386 25.4022 21.2332 25.4076 21.2278 25.413C21.2224 25.4184 21.217 25.4237 21.2115 25.4292C21.2062 25.4346 21.2008 25.44 21.1953 25.4455C21.1898 25.451 21.1843 25.4564 21.1789 25.4618C21.1735 25.4673 21.1679 25.4729 21.1624 25.4784C21.1569 25.4838 21.1514 25.4893 21.1459 25.4949C21.1404 25.5004 21.1348 25.506 21.1292 25.5115C21.1237 25.5171 21.1181 25.5227 21.1125 25.5283C21.1069 25.5338 21.1013 25.5394 21.0957 25.5451C21.0901 25.5507 21.0844 25.5564 21.0788 25.5619C21.0732 25.5676 21.0675 25.5733 21.0618 25.579C21.0561 25.5846 21.0505 25.5903 21.0448 25.596C21.039 25.6017 21.0333 25.6074 21.0276 25.6132C21.0219 25.6189 21.0161 25.6246 21.0104 25.6304C21.0046 25.6362 20.9988 25.6419 20.9931 25.6477C20.9873 25.6535 20.9814 25.6593 20.9756 25.6651C20.9698 25.671 20.964 25.6768 20.9581 25.6826C20.9523 25.6885 20.9464 25.6944 20.9405 25.7002C20.9347 25.7061 20.9287 25.712 20.9229 25.7179C20.917 25.7238 20.911 25.7297 20.9051 25.7357C20.8992 25.7416 20.8932 25.7475 20.8873 25.7535C20.8813 25.7595 20.8753 25.7654 20.8693 25.7715C20.8633 25.7774 20.8574 25.7834 20.8513 25.7895C20.8452 25.7955 20.8393 25.8015 20.8332 25.8075C20.8272 25.8136 20.8211 25.8197 20.815 25.8258C20.8089 25.8319 20.8028 25.8379 20.7967 25.8441C20.7906 25.8501 20.7845 25.8563 20.7783 25.8625C20.7722 25.8686 20.766 25.8748 20.7599 25.8809C20.7537 25.8871 20.7475 25.8932 20.7413 25.8995C20.7351 25.9056 20.7289 25.9119 20.7226 25.9181C20.7165 25.9243 20.7102 25.9305 20.7039 25.9369C20.6976 25.9431 20.6914 25.9494 20.6851 25.9556C20.6788 25.962 20.6725 25.9682 20.6662 25.9746C20.6598 25.9809 20.6535 25.9873 20.6471 25.9936C20.6408 26 20.6345 26.0063 20.6281 26.0127C20.6218 26.019 20.6153 26.0255 20.6089 26.0319C20.6025 26.0382 20.5961 26.0447 20.5896 26.0511C20.5832 26.0576 20.5767 26.064 20.5703 26.0705C20.5638 26.077 20.5573 26.0834 20.5508 26.09C20.5443 26.0964 20.5378 26.103 20.5313 26.1095C20.5247 26.116 20.5182 26.1226 20.5116 26.1291C20.505 26.1358 20.4985 26.1423 20.4918 26.1489C20.4853 26.1555 20.4787 26.1621 20.472 26.1687C20.4654 26.1754 20.4588 26.182 20.4521 26.1886C20.4455 26.1953 20.4388 26.2019 20.4321 26.2086C20.4255 26.2153 20.4187 26.222 20.412 26.2287C20.4053 26.2355 20.3986 26.2422 20.3918 26.2489C20.3851 26.2557 20.3784 26.2624 20.3715 26.2692C20.3648 26.276 20.358 26.2828 20.3511 26.2896C20.3443 26.2964 20.3375 26.3033 20.3307 26.3101C20.3238 26.3169 20.317 26.3238 20.3101 26.3307C20.3033 26.3375 20.2963 26.3444 20.2894 26.3514C20.2826 26.3582 20.2757 26.3651 20.2686 26.3721C20.2617 26.3791 20.2548 26.386 20.2479 26.3929C20.2408 26.3999 20.2339 26.4068 20.2269 26.4139C20.2199 26.4209 20.2129 26.4279 20.2058 26.4349C20.1988 26.4419 20.1918 26.449 20.1847 26.4561C20.1777 26.4631 20.1705 26.4702 20.1634 26.4773C20.1564 26.4844 20.1493 26.4915 20.1422 26.4986C20.135 26.5058 20.1278 26.5129 20.1207 26.52C20.1135 26.5272 20.1064 26.5344 20.0992 26.5416C20.092 26.5488 20.0848 26.556 20.0775 26.5632C20.0703 26.5704 20.0631 26.5776 20.0558 26.5849C20.0486 26.5922 20.0413 26.5995 20.034 26.6068C20.0268 26.614 20.0195 26.6213 20.0122 26.6286C20.0048 26.6359 19.9974 26.6433 19.9901 26.6506C19.9827 26.658 19.9754 26.6653 19.968 26.6727C19.9606 26.6802 19.9532 26.6876 19.9458 26.695C19.9384 26.7024 19.931 26.7098 19.9235 26.7173C19.9161 26.7247 19.9086 26.7322 19.9011 26.7397C19.8937 26.7471 19.8862 26.7546 19.8786 26.7622C19.8711 26.7697 19.8636 26.7772 19.856 26.7848C19.8485 26.7923 19.8409 26.7999 19.8334 26.8074C19.8258 26.815 19.8182 26.8226 19.8106 26.8302C19.8029 26.8379 19.7953 26.8455 19.7876 26.8532C19.78 26.8608 19.7723 26.8684 19.7646 26.8761C19.757 26.8837 19.7493 26.8914 19.7415 26.8992C19.7339 26.9069 19.7262 26.9146 19.7184 26.9224C19.7107 26.9301 19.7029 26.9379 19.6951 26.9457C19.6873 26.9535 19.6795 26.9612 19.6717 26.969C19.6639 26.9768 19.6561 26.9847 19.6483 26.9925C19.6404 27.0004 19.6325 27.0083 19.6246 27.0162C19.6167 27.024 19.6088 27.0319 19.6009 27.0398C19.5931 27.0477 19.5851 27.0557 19.5772 27.0636C19.5692 27.0716 19.5612 27.0795 19.5532 27.0875C19.5453 27.0955 19.5373 27.1035 19.5293 27.1115C19.5212 27.1195 19.5132 27.1275 19.5052 27.1356C19.4971 27.1437 19.489 27.1518 19.4809 27.1598C19.4729 27.1679 19.4648 27.176 19.4567 27.1841C19.4485 27.1922 19.4404 27.2003 19.4323 27.2085C19.4241 27.2167 19.4159 27.2248 19.4078 27.233C19.3996 27.2412 19.3914 27.2494 19.3831 27.2576C19.375 27.2658 19.3667 27.2741 19.3584 27.2823C19.3501 27.2906 19.3419 27.2989 19.3336 27.3072C19.3253 27.3154 19.3171 27.3237 19.3087 27.3321C19.3004 27.3403 19.2921 27.3487 19.2837 27.3571C19.2753 27.3654 19.267 27.3738 19.2586 27.3822C19.2501 27.3906 19.2418 27.399 19.2333 27.4075C19.2249 27.4158 19.2165 27.4243 19.208 27.4328C19.1995 27.4412 19.1911 27.4497 19.1825 27.4582C19.1741 27.4667 19.1656 27.4752 19.157 27.4837C19.1485 27.4923 19.1399 27.5008 19.1314 27.5094C19.1228 27.518 19.1143 27.5265 19.1056 27.5352C19.097 27.5437 19.0884 27.5524 19.0797 27.561C19.0712 27.5696 19.0625 27.5783 19.0538 27.587C19.0451 27.5957 19.0365 27.6043 19.0277 27.6131C19.019 27.6217 19.0103 27.6305 19.0015 27.6392C18.9928 27.648 18.984 27.6567 18.9753 27.6655C18.9665 27.6742 18.9577 27.6831 18.9489 27.6918C18.9401 27.7007 18.9312 27.7095 18.9224 27.7184C18.9136 27.7272 18.9047 27.7361 18.8958 27.745C18.8869 27.7539 18.878 27.7628 18.8691 27.7716C18.8602 27.7806 18.8512 27.7895 18.8423 27.7985C18.8333 27.8074 18.8243 27.8165 18.8154 27.8254C18.8063 27.8344 18.7974 27.8434 18.7883 27.8524C18.7793 27.8615 18.7703 27.8705 18.7612 27.8795C18.7521 27.8887 18.743 27.8977 18.7339 27.9069C18.7249 27.9159 18.7157 27.925 18.7066 27.9342C18.6975 27.9433 18.6883 27.9524 18.6791 27.9617C18.67 27.9708 18.6607 27.98 18.6516 27.9892C18.6424 27.9984 18.6331 28.0076 18.6239 28.0169C18.6147 28.0261 18.6053 28.0354 18.5961 28.0447C18.5868 28.054 18.5775 28.0632 18.5682 28.0725C18.5589 28.0819 18.5496 28.0912 18.5401 28.1006C18.5308 28.11 18.5215 28.1193 18.5121 28.1287L19.9546 29.5712C19.964 29.5618 19.9733 29.5525 19.9826 29.5431C19.9921 29.5337 20.0014 29.5244 20.0107 29.515C20.02 29.5057 20.0293 29.4965 20.0386 29.4872C20.0478 29.4779 20.0572 29.4686 20.0664 29.4594C20.0756 29.4501 20.0849 29.4409 20.0941 29.4317C20.1032 29.4225 20.1125 29.4133 20.1216 29.4042C20.1308 29.3949 20.14 29.3858 20.1491 29.3767C20.1582 29.3675 20.1674 29.3584 20.1764 29.3494C20.1855 29.3402 20.1946 29.3312 20.2037 29.322C20.2128 29.313 20.2218 29.304 20.2308 29.2949C20.2399 29.2859 20.2488 29.2769 20.2579 29.2679C20.2668 29.259 20.2758 29.2499 20.2848 29.241C20.2937 29.232 20.3027 29.2231 20.3116 29.2141C20.3205 29.2053 20.3294 29.1964 20.3383 29.1875C20.3472 29.1786 20.356 29.1697 20.3649 29.1609C20.3737 29.152 20.3826 29.1432 20.3914 29.1343C20.4002 29.1256 20.409 29.1167 20.4178 29.108C20.4265 29.0992 20.4353 29.0905 20.444 29.0817C20.4528 29.073 20.4615 29.0642 20.4702 29.0556C20.4789 29.0468 20.4876 29.0382 20.4963 29.0295C20.505 29.0208 20.5137 29.0121 20.5222 29.0035C20.5309 28.9949 20.5395 28.9862 20.5481 28.9777C20.5567 28.969 20.5653 28.9605 20.5739 28.9519C20.5824 28.9433 20.591 28.9348 20.5995 28.9262C20.6081 28.9177 20.6166 28.9092 20.625 28.9007C20.6336 28.8922 20.642 28.8837 20.6505 28.8753C20.659 28.8668 20.6674 28.8583 20.6758 28.85C20.6843 28.8415 20.6926 28.8331 20.7011 28.8247C20.7095 28.8163 20.7178 28.8079 20.7262 28.7996C20.7346 28.7912 20.7429 28.7828 20.7512 28.7746C20.7596 28.7662 20.7678 28.7579 20.7761 28.7497C20.7844 28.7414 20.7926 28.7331 20.8009 28.7248C20.8092 28.7166 20.8175 28.7083 20.8256 28.7001C20.8339 28.6919 20.8421 28.6837 20.8502 28.6755C20.8584 28.6673 20.8666 28.6592 20.8748 28.651C20.8829 28.6428 20.891 28.6347 20.8992 28.6266C20.9073 28.6185 20.9154 28.6104 20.9234 28.6023C20.9315 28.5943 20.9396 28.5862 20.9477 28.5781C20.9557 28.57 20.9637 28.562 20.9718 28.554C20.9798 28.546 20.9878 28.538 20.9957 28.53C21.0037 28.522 21.0117 28.514 21.0197 28.5061C21.0276 28.4982 21.0356 28.4902 21.0434 28.4823C21.0513 28.4744 21.0592 28.4665 21.0671 28.4587C21.075 28.4508 21.0829 28.4429 21.0908 28.435C21.0986 28.4272 21.1064 28.4193 21.1142 28.4115C21.122 28.4037 21.1298 28.396 21.1376 28.3882C21.1454 28.3804 21.1532 28.3726 21.1609 28.3649C21.1687 28.3571 21.1763 28.3494 21.184 28.3417C21.1918 28.3339 21.1995 28.3262 21.2071 28.3186C21.2148 28.3109 21.2225 28.3033 21.2301 28.2957C21.2378 28.288 21.2454 28.2804 21.2531 28.2727C21.2607 28.2651 21.2683 28.2575 21.2759 28.2499C21.2834 28.2424 21.291 28.2348 21.2985 28.2273C21.3061 28.2197 21.3136 28.2122 21.3211 28.2047C21.3287 28.1971 21.3362 28.1896 21.3436 28.1822C21.3511 28.1747 21.3586 28.1672 21.366 28.1598C21.3735 28.1523 21.3809 28.1449 21.3883 28.1375C21.3957 28.1301 21.4031 28.1227 21.4105 28.1152C21.4179 28.1078 21.4252 28.1005 21.4326 28.0931C21.4399 28.0858 21.4473 28.0784 21.4547 28.0711C21.462 28.0638 21.4693 28.0565 21.4765 28.0493C21.4838 28.042 21.4911 28.0347 21.4983 28.0274C21.5056 28.0201 21.5128 28.0129 21.52 28.0057C21.5273 27.9985 21.5345 27.9913 21.5417 27.9841C21.5489 27.9769 21.556 27.9697 21.5632 27.9625C21.5703 27.9554 21.5775 27.9483 21.5847 27.9411C21.5918 27.934 21.5989 27.9269 21.6059 27.9198C21.613 27.9127 21.6202 27.9056 21.6272 27.8986C21.6343 27.8915 21.6413 27.8844 21.6483 27.8774C21.6554 27.8704 21.6624 27.8634 21.6694 27.8564C21.6764 27.8493 21.6833 27.8424 21.6904 27.8354C21.6973 27.8285 21.7042 27.8216 21.7111 27.8146C21.7182 27.8076 21.7251 27.8007 21.7319 27.7939C21.7388 27.7869 21.7458 27.78 21.7526 27.7732C21.7595 27.7663 21.7663 27.7594 21.7732 27.7526C21.78 27.7458 21.7868 27.7389 21.7936 27.7321C21.8005 27.7253 21.8073 27.7185 21.814 27.7117C21.8209 27.7049 21.8276 27.6982 21.8343 27.6914C21.8411 27.6847 21.8478 27.678 21.8545 27.6712C21.8612 27.6645 21.868 27.6578 21.8746 27.6511C21.8813 27.6444 21.888 27.6378 21.8946 27.6311C21.9013 27.6245 21.9079 27.6179 21.9145 27.6112C21.9212 27.6046 21.9278 27.598 21.9343 27.5914C21.941 27.5848 21.9475 27.5783 21.9541 27.5716C21.9607 27.5651 21.9672 27.5585 21.9738 27.552C21.9803 27.5455 21.9868 27.5389 21.9933 27.5325C21.9998 27.5259 22.0063 27.5195 22.0128 27.513C22.0192 27.5065 22.0257 27.5001 22.0321 27.4936C22.0386 27.4872 22.045 27.4807 22.0514 27.4744C22.0578 27.4679 22.0643 27.4615 22.0706 27.4552C22.0769 27.4488 22.0833 27.4425 22.0896 27.4361C22.096 27.4298 22.1023 27.4234 22.1087 27.4171C22.115 27.4107 22.1213 27.4045 22.1276 27.3981C22.1339 27.3919 22.1401 27.3856 22.1464 27.3794C22.1527 27.373 22.159 27.3668 22.1651 27.3606C22.1714 27.3544 22.1776 27.3481 22.1838 27.342C22.19 27.3357 22.1962 27.3296 22.2023 27.3234C22.2085 27.3173 22.2147 27.3111 22.2208 27.3049C22.227 27.2988 22.2331 27.2926 22.2392 27.2866C22.2453 27.2804 22.2514 27.2744 22.2575 27.2683C22.2636 27.2622 22.2697 27.2561 22.2757 27.25C22.2818 27.244 22.2877 27.238 22.2938 27.232C22.2999 27.2259 22.3058 27.2199 22.3118 27.214C22.3178 27.2079 22.3238 27.202 22.3298 27.196C22.3357 27.19 22.3417 27.1841 22.3476 27.1782C22.3535 27.1722 22.3595 27.1663 22.3654 27.1604C22.3712 27.1545 22.3772 27.1486 22.383 27.1427C22.3889 27.1368 22.3948 27.131 22.4006 27.1251C22.4065 27.1192 22.4123 27.1135 22.4181 27.1076C22.4239 27.1018 22.4298 27.096 22.4356 27.0902C22.4413 27.0844 22.4471 27.0787 22.4529 27.0729C22.4586 27.0671 22.4644 27.0614 22.4701 27.0557C22.4758 27.0499 22.4815 27.0442 22.4873 27.0385C22.493 27.0328 22.4986 27.0271 22.5043 27.0214C22.51 27.0158 22.5157 27.0101 22.5213 27.0044C22.5269 26.9989 22.5326 26.9932 22.5382 26.9876C22.5438 26.9819 22.5494 26.9763 22.555 26.9708C22.5606 26.9652 22.5661 26.9596 22.5717 26.954C22.5773 26.9485 22.5829 26.9429 22.5884 26.9374C22.5939 26.9318 22.5994 26.9263 22.6049 26.9209C22.6104 26.9154 22.616 26.9098 22.6214 26.9043C22.6268 26.8989 22.6323 26.8935 22.6378 26.888C22.6433 26.8825 22.6487 26.8771 22.654 26.8717C22.6595 26.8662 22.6649 26.8609 22.6703 26.8555C22.6757 26.8501 22.6811 26.8447 22.6865 26.8393C22.6918 26.8339 22.6971 26.8286 22.7025 26.8232C22.7078 26.818 22.7132 26.8126 22.7185 26.8073C22.7238 26.802 22.7291 26.7967 22.7343 26.7914C22.7396 26.7861 22.7449 26.7808 22.7502 26.7756C22.7554 26.7704 22.7607 26.7651 22.7659 26.7599C22.7711 26.7547 22.7764 26.7494 22.7816 26.7442C22.7868 26.739 22.7919 26.7338 22.7971 26.7286C22.8022 26.7235 22.8074 26.7183 22.8126 26.7131C22.8177 26.708 22.8228 26.7029 22.828 26.6978C22.8331 26.6927 22.8382 26.6876 22.8433 26.6825C22.8484 26.6774 22.8535 26.6723 22.8585 26.6673C22.8636 26.6622 22.8687 26.6571 22.8737 26.6521C22.8787 26.6471 22.8838 26.642 22.8888 26.637C22.8938 26.632 22.8988 26.627 22.9038 26.622C22.9087 26.6171 22.9137 26.6121 22.9187 26.6071C22.9236 26.6022 22.9286 26.5972 22.9335 26.5923C22.9384 26.5874 22.9433 26.5824 22.9482 26.5775C22.9531 26.5726 22.958 26.5677 22.9629 26.5628C22.9678 26.5579 22.9726 26.5531 22.9775 26.5482C22.9824 26.5434 22.9872 26.5386 22.9921 26.5337C22.9969 26.5289 23.0017 26.5241 23.0065 26.5193C23.0113 26.5145 23.016 26.5097 23.0208 26.5049C23.0256 26.5001 23.0303 26.4954 23.0351 26.4907C23.0399 26.4859 23.0446 26.4812 23.0493 26.4765C23.054 26.4718 23.0587 26.467 23.0634 26.4623C23.0681 26.4576 23.0728 26.453 23.0775 26.4483C23.0822 26.4436 23.0868 26.439 23.0914 26.4344C23.0961 26.4296 23.1007 26.425 23.1054 26.4204C23.11 26.4158 23.1146 26.4112 23.1191 26.4067C23.1237 26.402 23.1283 26.3974 23.1329 26.3929C23.1375 26.3883 23.142 26.3838 23.1465 26.3792C23.151 26.3747 23.1556 26.3701 23.1601 26.3657C23.1646 26.3612 23.1691 26.3567 23.1736 26.3521C23.1782 26.3476 23.1826 26.3432 23.1871 26.3387C23.1915 26.3342 23.1959 26.3298 23.2004 26.3254C23.2049 26.3209 23.2093 26.3165 23.2137 26.312C23.2181 26.3077 23.2225 26.3033 23.2269 26.2989C23.2312 26.2945 23.2357 26.2901 23.24 26.2858C23.2444 26.2814 23.2487 26.277 23.2531 26.2727C23.2574 26.2684 23.2617 26.264 23.266 26.2597C23.2704 26.2554 23.2747 26.2511 23.2789 26.2468C23.2833 26.2425 23.2875 26.2383 23.2918 26.2339C23.2961 26.2297 23.3003 26.2255 23.3045 26.2212C23.3087 26.217 23.313 26.2128 23.3172 26.2086C23.3214 26.2043 23.3257 26.2001 23.3298 26.196C23.334 26.1917 23.3382 26.1876 23.3424 26.1834C23.3465 26.1792 23.3507 26.1751 23.3548 26.171C23.3589 26.1668 23.3631 26.1627 23.3672 26.1585C23.3713 26.1544 23.3754 26.1504 23.3795 26.1462C23.3837 26.1421 23.3877 26.1381 23.3917 26.134C23.3959 26.1299 23.3999 26.1258 23.4039 26.1218C23.408 26.1178 23.412 26.1137 23.4161 26.1097C23.42 26.1058 23.424 26.1017 23.4281 26.0977C23.432 26.0937 23.4361 26.0897 23.44 26.0857C23.444 26.0818 23.4479 26.0779 23.4519 26.0738C23.4559 26.0699 23.4598 26.0659 23.4637 26.0621C23.4676 26.0581 23.4716 26.0542 23.4754 26.0504C23.4793 26.0464 23.4832 26.0426 23.4871 26.0386C23.491 26.0348 23.4948 26.0309 23.4987 26.0271C23.5025 26.0232 23.5064 26.0194 23.5102 26.0155C23.5141 26.0117 23.5179 26.0079 23.5217 26.0041C23.5255 26.0003 23.5293 25.9965 23.5331 25.9927C23.5369 25.9889 23.5406 25.9852 23.5444 25.9814C23.5482 25.9776 23.552 25.9738 23.5556 25.9702C23.5594 25.9664 23.5631 25.9627 23.5669 25.9589C23.5705 25.9553 23.5743 25.9515 23.5779 25.9478C23.5817 25.9441 23.5853 25.9404 23.589 25.9368C23.5926 25.9331 23.5963 25.9295 23.5999 25.9258C23.6036 25.9222 23.6072 25.9185 23.6108 25.915C23.6145 25.9113 23.6181 25.9076 23.6217 25.9041C23.6253 25.9004 23.6289 25.8969 23.6324 25.8933C23.636 25.8898 23.6396 25.8862 23.6431 25.8826C23.6467 25.8791 23.6502 25.8755 23.6538 25.872C23.6573 25.8684 23.6608 25.865 23.6644 25.8614C23.6678 25.8579 23.6714 25.8544 23.6749 25.8509C23.6783 25.8474 23.6818 25.844 23.6852 25.8405C23.6887 25.8371 23.6922 25.8336 23.6956 25.8301C23.6991 25.8267 23.7025 25.8233 23.7059 25.8198C23.7094 25.8164 23.7127 25.813 23.7161 25.8097C23.7196 25.8062 23.7229 25.8028 23.7263 25.7995C23.7297 25.7961 23.733 25.7927 23.7364 25.7894C23.7398 25.786 23.7431 25.7826 23.7464 25.7794C23.7498 25.776 23.7531 25.7726 23.7564 25.7694C23.7597 25.7661 23.763 25.7627 23.7663 25.7595C23.7696 25.7562 23.7728 25.7529 23.7761 25.7496C23.7794 25.7464 23.7827 25.7431 23.7859 25.7398C23.7892 25.7366 23.7924 25.7334 23.7956 25.7301C23.7988 25.727 23.8021 25.7237 23.8053 25.7205C23.8084 25.7173 23.8116 25.7142 23.8149 25.7109C23.818 25.7077 23.8212 25.7045 23.8243 25.7015C23.8275 25.6983 23.8306 25.6951 23.8338 25.6919C23.8369 25.6889 23.8401 25.6857 23.8431 25.6826C23.8463 25.6794 23.8494 25.6764 23.8525 25.6733C23.8555 25.6702 23.8587 25.667 23.8617 25.6641C23.8648 25.661 23.8679 25.6579 23.8709 25.6548C23.874 25.6517 23.8771 25.6487 23.8801 25.6457C23.8831 25.6426 23.8861 25.6396 23.8891 25.6367C23.8922 25.6336 23.8952 25.6306 23.8981 25.6276C23.9011 25.6246 23.9041 25.6216 23.9071 25.6187C23.9101 25.6157 23.9131 25.6127 23.9159 25.6098C23.9189 25.6068 23.9219 25.6039 23.9248 25.601C23.9278 25.598 23.9307 25.5951 23.9335 25.5922C23.9365 25.5892 23.9394 25.5864 23.9423 25.5835C23.9452 25.5806 23.9481 25.5777 23.9509 25.5748C23.9537 25.572 23.9566 25.5691 23.9595 25.5663C23.9623 25.5635 23.9652 25.5606 23.968 25.5578C23.9709 25.5549 23.9736 25.5521 23.9764 25.5493C23.9792 25.5465 23.9821 25.5437 23.9849 25.5409C23.9877 25.5381 23.9904 25.5354 23.9932 25.5326C23.996 25.5298 23.9987 25.527 24.0014 25.5243C24.0042 25.5215 24.0069 25.5188 24.0097 25.5161C24.0124 25.5134 24.0151 25.5107 24.0179 25.5079C24.0206 25.5052 24.0233 25.5025 24.026 25.4998C24.0286 25.4971 24.0313 25.4944 24.0339 25.4918C24.0366 25.4891 24.0393 25.4864 24.0419 25.4838C24.0446 25.4811 24.0472 25.4786 24.0499 25.4759C24.0525 25.4733 24.0551 25.4707 24.0578 25.468C24.0604 25.4654 24.063 25.4628 24.0656 25.4602C24.0682 25.4576 24.0707 25.4551 24.0733 25.4525C24.0759 25.4499 24.0785 25.4473 24.081 25.4448C24.0836 25.4422 24.0861 25.4397 24.0887 25.4371C24.0912 25.4346 24.0937 25.4321 24.0962 25.4296C24.0988 25.427 24.1013 25.4245 24.1038 25.422C24.1063 25.4195 24.1087 25.4171 24.1112 25.4146C24.1137 25.4121 24.1162 25.4096 24.1186 25.4072C24.1211 25.4047 24.1235 25.4023 24.126 25.3998C24.1284 25.3974 24.1308 25.395 24.1332 25.3926C24.1357 25.3901 24.1381 25.3877 24.1405 25.3853C24.1429 25.3829 24.1453 25.3805 24.1476 25.3782C24.15 25.3758 24.1524 25.3733 24.1547 25.371C24.1571 25.3686 24.1595 25.3662 24.1618 25.3639C24.1641 25.3616 24.1666 25.3592 24.1689 25.3569C24.1712 25.3546 24.1735 25.3523 24.1758 25.35C24.1781 25.3477 24.1804 25.3454 24.1827 25.3431C24.185 25.3407 24.1873 25.3384 24.1895 25.3362C24.1918 25.3339 24.1942 25.3316 24.1964 25.3294C24.1987 25.3271 24.2009 25.3249 24.2031 25.3227C24.2054 25.3204 24.2076 25.3181 24.2098 25.3159C24.212 25.3137 24.2142 25.3115 24.2165 25.3093C24.2187 25.3071 24.2209 25.3049 24.223 25.3028C24.2252 25.3005 24.2274 25.2983 24.2295 25.2962C24.2318 25.294 24.2339 25.2919 24.2361 25.2897C24.2382 25.2876 24.2403 25.2855 24.2424 25.2833C24.2446 25.2811 24.2468 25.279 24.2489 25.2769C24.251 25.2748 24.2531 25.2727 24.2551 25.2706C24.2572 25.2685 24.2594 25.2664 24.2615 25.2643C24.2635 25.2623 24.2656 25.2602 24.2676 25.2581C24.2697 25.256 24.2718 25.254 24.2738 25.252C24.2759 25.2499 24.2779 25.2478 24.2799 25.2458C24.282 25.2438 24.284 25.2418 24.286 25.2398C24.288 25.2378 24.29 25.2357 24.292 25.2338C24.294 25.2318 24.296 25.2298 24.2979 25.2278C24.2999 25.2258 24.3019 25.2239 24.3039 25.2219C24.3058 25.22 24.3078 25.2179 24.3097 25.216C24.3117 25.2141 24.3136 25.2122 24.3155 25.2102C24.3174 25.2083 24.3194 25.2064 24.3213 25.2045C24.3232 25.2026 24.3251 25.2006 24.327 25.1988C24.3289 25.1969 24.3308 25.195 24.3326 25.1931C24.3346 25.1912 24.3364 25.1894 24.3383 25.1875C24.3401 25.1856 24.342 25.1838 24.3438 25.182C24.3457 25.1801 24.3475 25.1782 24.3494 25.1764C24.3512 25.1746 24.353 25.1727 24.3548 25.1709C24.3567 25.1691 24.3584 25.1674 24.3602 25.1655C24.3621 25.1637 24.3638 25.162 24.3656 25.1601C24.3673 25.1584 24.3692 25.1566 24.3709 25.1549C24.3727 25.153 24.3745 25.1513 24.3762 25.1496C24.3779 25.1478 24.3797 25.1461 24.3814 25.1444C24.3831 25.1426 24.3848 25.1409 24.3866 25.1392C24.3883 25.1375 24.39 25.1357 24.3918 25.134C24.3934 25.1324 24.3951 25.1306 24.3968 25.129C24.3985 25.1273 24.4001 25.1256 24.4019 25.1239C24.4035 25.1223 24.4051 25.1206 24.4069 25.1189C24.4085 25.1173 24.4101 25.1156 24.4118 25.114C24.4134 25.1124 24.415 25.1107 24.4167 25.1091C24.4183 25.1074 24.4199 25.1058 24.4215 25.1043C24.4231 25.1026 24.4248 25.101 24.4263 25.0995C24.4279 25.0978 24.4296 25.0962 24.4311 25.0947C24.4326 25.0931 24.4343 25.0915 24.4358 25.0899C24.4374 25.0884 24.439 25.0868 24.4405 25.0852C24.4421 25.0837 24.4436 25.0822 24.4451 25.0806C24.4467 25.0791 24.4482 25.0775 24.4497 25.0761C24.4512 25.0746 24.4527 25.073 24.4543 25.0715C24.4557 25.07 24.4573 25.0685 24.4587 25.0671C24.4602 25.0655 24.4617 25.0641 24.4632 25.0625C24.4647 25.0611 24.4661 25.0597 24.4676 25.0582C24.4691 25.0567 24.4705 25.0552 24.472 25.0538C24.4734 25.0523 24.4749 25.0509 24.4763 25.0495C24.4777 25.048 24.4791 25.0467 24.4805 25.0452C24.482 25.0438 24.4834 25.0423 24.4848 25.041C24.4862 25.0396 24.4876 25.0382 24.489 25.0368C24.4903 25.0354 24.4918 25.034 24.4931 25.0326C24.4945 25.0313 24.4959 25.0298 24.4973 25.0285C24.4986 25.0271 24.5 25.0258 24.5013 25.0245C24.5027 25.0231 24.504 25.0218 24.5053 25.0204C24.5067 25.0191 24.508 25.0177 24.5093 25.0165C24.5106 25.0151 24.512 25.0138 24.5132 25.0125C24.5146 25.0112 24.5158 25.0099 24.5172 25.0086C24.5184 25.0073 24.5198 25.006 24.521 25.0047C24.5223 25.0035 24.5236 25.0021 24.5249 25.0009C24.5261 24.9996 24.5274 24.9984 24.5286 24.9971C24.5299 24.9959 24.5311 24.9946 24.5324 24.9934C24.5336 24.9921 24.5349 24.9909 24.536 24.9897C24.5373 24.9885 24.5385 24.9872 24.5397 24.9861C24.5409 24.9848 24.5421 24.9837 24.5433 24.9824C24.5445 24.9813 24.5457 24.98 24.5469 24.9789C24.5481 24.9776 24.5493 24.9765 24.5504 24.9753C24.5516 24.9742 24.5528 24.973 24.5539 24.9719C24.5551 24.9707 24.5562 24.9695 24.5574 24.9684C24.5585 24.9672 24.5597 24.9661 24.5608 24.9649C24.562 24.9638 24.5631 24.9626 24.5642 24.9616C24.5654 24.9604 24.5665 24.9593 24.5676 24.9582C24.5687 24.957 24.5698 24.956 24.5708 24.9549C24.572 24.9538 24.573 24.9527 24.5742 24.9516C24.5753 24.9505 24.5763 24.9494 24.5774 24.9484C24.5784 24.9473 24.5795 24.9463 24.5805 24.9452C24.5816 24.9442 24.5827 24.9431 24.5837 24.942C24.5848 24.941 24.5858 24.9399 24.5869 24.9389C24.588 24.9378 24.5889 24.9368 24.59 24.9358C24.591 24.9347 24.592 24.9338 24.593 24.9327C24.594 24.9318 24.5951 24.9307 24.596 24.9297C24.597 24.9288 24.5981 24.9277 24.599 24.9267C24.6 24.9258 24.6009 24.9248 24.602 24.9238C24.603 24.9228 24.6039 24.9218 24.6049 24.9209C24.6058 24.9199 24.6068 24.919 24.6078 24.918C24.6087 24.917 24.6096 24.9162 24.6106 24.9152C24.6115 24.9142 24.6125 24.9133 24.6133 24.9124C24.6143 24.9115 24.6153 24.9105 24.6161 24.9096C24.6171 24.9087 24.618 24.9078 24.6189 24.9068C24.6198 24.906 24.6206 24.9051 24.6216 24.9042C24.6225 24.9033 24.6233 24.9024 24.6242 24.9016C24.6252 24.9006 24.626 24.8997 24.6269 24.8989C24.6278 24.898 24.6286 24.8971 24.6295 24.8963C24.6304 24.8954 24.6312 24.8945 24.632 24.8938C24.6329 24.8929 24.6337 24.892 24.6346 24.8912C24.6354 24.8904 24.6362 24.8895 24.6371 24.8887C24.6379 24.8879 24.6387 24.887 24.6395 24.8863C24.6404 24.8854 24.6411 24.8846 24.642 24.8838C24.6428 24.883 24.6435 24.8822 24.6444 24.8814C24.6452 24.8806 24.6459 24.8798 24.6467 24.8791C24.6475 24.8783 24.6483 24.8774 24.6491 24.8766C24.6499 24.8759 24.6507 24.8751 24.6514 24.8743C24.6522 24.8736 24.6529 24.8729 24.6536 24.8721C24.6544 24.8714 24.6552 24.8706 24.6559 24.8698C24.6566 24.8691 24.6574 24.8684 24.6582 24.8676C24.6588 24.8669 24.6596 24.8662 24.6603 24.8655C24.661 24.8647 24.6617 24.864 24.6625 24.8633C24.6632 24.8626 24.6638 24.8619 24.6646 24.8612C24.6653 24.8605 24.6659 24.8598 24.6667 24.859C24.6674 24.8584 24.6681 24.8577 24.6687 24.857C24.6694 24.8564 24.6701 24.8557 24.6708 24.855C24.6714 24.8543 24.6721 24.8537 24.6728 24.853C24.6734 24.8523 24.6741 24.8516 24.6747 24.8511C24.6754 24.8504 24.676 24.8497 24.6767 24.849C24.6773 24.8485 24.678 24.8478 24.6786 24.8471C24.6792 24.8465 24.6799 24.8459 24.6805 24.8453C24.6811 24.8446 24.6817 24.844 24.6824 24.8434C24.683 24.8428 24.6835 24.8422 24.6842 24.8415C24.6848 24.841 24.6854 24.8404 24.6859 24.8398C24.6865 24.8392 24.6872 24.8386 24.6878 24.838C24.6883 24.8374 24.6889 24.8368 24.6895 24.8363C24.6901 24.8357 24.6907 24.8351 24.6912 24.8345C24.6918 24.8339 24.6924 24.8334 24.6929 24.8329C24.6934 24.8323 24.694 24.8317 24.6946 24.8312C24.6951 24.8307 24.6957 24.8301 24.6962 24.8295C24.6967 24.829 24.6973 24.8285 24.6979 24.8279C24.6984 24.8274 24.6989 24.8268 24.6994 24.8264C24.6999 24.8259 24.7005 24.8253 24.7009 24.8248C24.7015 24.8242 24.702 24.8238 24.7025 24.8233C24.7031 24.8227 24.7035 24.8222 24.704 24.8217C24.7045 24.8213 24.705 24.8208 24.7055 24.8203C24.7059 24.8198 24.7065 24.8192 24.707 24.8188C24.7075 24.8183 24.708 24.8178 24.7084 24.8174C24.7088 24.8169 24.7093 24.8164 24.7098 24.816C24.7103 24.8155 24.7108 24.815 24.7111 24.8146C24.7116 24.8141 24.7121 24.8137 24.7126 24.8132C24.713 24.8128 24.7134 24.8123 24.7139 24.8118C24.7143 24.8114 24.7148 24.811 24.7152 24.8106C24.7157 24.8101 24.716 24.8097 24.7165 24.8092C24.7169 24.8088 24.7173 24.8085 24.7178 24.808C24.7182 24.8076 24.7185 24.8072 24.719 24.8067C24.7194 24.8063 24.7198 24.806 24.7202 24.8056C24.7206 24.8052 24.721 24.8047 24.7214 24.8043C24.7218 24.8039 24.7222 24.8036 24.7226 24.8032C24.723 24.8028 24.7234 24.8024 24.7237 24.802C24.7241 24.8016 24.7245 24.8013 24.7249 24.8009C24.7253 24.8005 24.7256 24.8002 24.726 24.7998C24.7263 24.7994 24.7267 24.799 24.727 24.7988C24.7274 24.7984 24.7278 24.798 24.7282 24.7976C24.7285 24.7973 24.7288 24.7969 24.7291 24.7966C24.7295 24.7963 24.7298 24.796 24.7302 24.7956C24.7306 24.7952 24.7309 24.7949 24.7311 24.7946C24.7315 24.7942 24.7318 24.7939 24.7322 24.7936C24.7325 24.7933 24.7328 24.793 24.7332 24.7926C24.7335 24.7923 24.7329 24.7929 24.7332 24.7926C24.7335 24.7922 24.7347 24.7911 24.735 24.7908C24.7353 24.7905 24.7347 24.7911 24.735 24.7908C24.7353 24.7905 24.7364 24.7893 24.7367 24.789C24.737 24.7888 24.7364 24.7893 24.7367 24.789C24.737 24.7888 24.7382 24.7876 24.7385 24.7873C24.7387 24.787 24.7382 24.7876 24.7385 24.7873C24.7387 24.787 24.7398 24.786 24.7401 24.7857C24.7404 24.7854 24.7399 24.7859 24.7401 24.7857C24.7404 24.7854 24.7414 24.7843 24.7416 24.7841C24.7419 24.7838 24.7413 24.7844 24.7416 24.7841C24.7419 24.7838 24.7429 24.7829 24.7432 24.7826C24.7434 24.7824 24.743 24.7828 24.7432 24.7826C24.7434 24.7824 24.7443 24.7814 24.7445 24.7812C24.7448 24.781 24.7443 24.7814 24.7445 24.7812C24.7448 24.781 24.7457 24.7801 24.7459 24.7799C24.746 24.7797 24.7457 24.7801 24.7459 24.7799C24.746 24.7797 24.7469 24.7788 24.7471 24.7787C24.7474 24.7784 24.7469 24.7788 24.7471 24.7787C24.7473 24.7785 24.7482 24.7776 24.7484 24.7774C24.7486 24.7772 24.7482 24.7776 24.7484 24.7774C24.7486 24.7772 24.7493 24.7764 24.7495 24.7762C24.7497 24.7761 24.7493 24.7764 24.7495 24.7762C24.7497 24.7761 24.7504 24.7754 24.7506 24.7752C24.7508 24.775 24.7504 24.7754 24.7506 24.7752C24.7507 24.7751 24.7514 24.7743 24.7516 24.7741C24.7518 24.7739 24.7529 24.7729 24.7531 24.7727C24.7532 24.7726 24.7542 24.7715 24.7543 24.7714C24.7544 24.7713 24.7554 24.7704 24.7555 24.7703C24.7556 24.7702 24.7564 24.7693 24.7566 24.7691C24.7567 24.769 24.7574 24.7684 24.7576 24.7682C24.7577 24.7681 24.7586 24.7672 24.7586 24.7671C24.7587 24.767 24.7586 24.7672 24.7586 24.7671C24.7587 24.767 24.7595 24.7662 24.7596 24.7662C24.7597 24.7661 24.7607 24.7651 24.7608 24.765C24.7608 24.765 24.7616 24.7641 24.7617 24.764C24.7618 24.7639 24.7629 24.7629 24.7629 24.7629L24.0416 24.0416ZM24.7629 24.7629L29.5712 19.9546L28.1287 18.5121L23.3204 23.3204L24.7629 24.7629Z" fill="white"/>
</svg>
