<svg width="21" height="21" viewBox="0 0 21 21" fill="none" xmlns="http://www.w3.org/2000/svg">
<path d="M18.55 19.25C18.795 19.25 18.9175 19.25 19.0111 19.2023C19.0935 19.1604 19.1604 19.0935 19.2023 19.0111C19.25 18.9175 19.25 18.795 19.25 18.55V9.45C19.25 9.205 19.25 9.0825 19.2023 8.98887C19.1604 8.90654 19.0935 8.8396 19.0111 8.79769C18.9175 8.75 18.795 8.75 18.55 8.75H16.45C16.205 8.75 16.0825 8.75 15.9889 8.79769C15.9065 8.8396 15.8396 8.90654 15.7977 8.98887C15.75 9.0825 15.75 9.205 15.75 9.45V11.55C15.75 11.795 15.75 11.9175 15.7023 12.0111C15.6604 12.0935 15.5935 12.1604 15.5111 12.2023C15.4175 12.25 15.295 12.25 15.05 12.25H12.95C12.705 12.25 12.5825 12.25 12.4889 12.2977C12.4065 12.3396 12.3396 12.4065 12.2977 12.4889C12.25 12.5825 12.25 12.705 12.25 12.95V15.05C12.25 15.295 12.25 15.4175 12.2023 15.5111C12.1604 15.5935 12.0935 15.6604 12.0111 15.7023C11.9175 15.75 11.795 15.75 11.55 15.75H9.45C9.205 15.75 9.0825 15.75 8.98887 15.7977C8.90654 15.8396 8.8396 15.9065 8.79769 15.9889C8.75 16.0825 8.75 16.205 8.75 16.45V18.55C8.75 18.795 8.75 18.9175 8.79769 19.0111C8.8396 19.0935 8.90654 19.1604 8.98887 19.2023C9.0825 19.25 9.205 19.25 9.45 19.25H18.55Z" stroke="#A06BFF" stroke-width="1.5" stroke-linecap="round" stroke-linejoin="round"/>
<path d="M8.75 5.95C8.75 5.70497 8.75 5.58246 8.79769 5.48887C8.8396 5.40655 8.90654 5.33963 8.98887 5.29769C9.0825 5.25 9.205 5.25 9.45 5.25H11.55C11.795 5.25 11.9175 5.25 12.0111 5.29769C12.0935 5.33963 12.1604 5.40655 12.2023 5.48887C12.25 5.58246 12.25 5.70497 12.25 5.95V8.05C12.25 8.29503 12.25 8.41753 12.2023 8.51112C12.1604 8.59344 12.0935 8.66037 12.0111 8.70231C11.9175 8.75 11.795 8.75 11.55 8.75H9.45C9.205 8.75 9.0825 8.75 8.98887 8.70231C8.90654 8.66037 8.8396 8.59344 8.79769 8.51112C8.75 8.41753 8.75 8.29503 8.75 8.05V5.95Z" stroke="#A06BFF" stroke-width="1.5" stroke-linecap="round" stroke-linejoin="round"/>
<path d="M2.625 11.2C2.625 10.955 2.625 10.8325 2.67269 10.7389C2.71463 10.6565 2.78155 10.5896 2.86387 10.5477C2.95746 10.5 3.07997 10.5 3.325 10.5H5.425C5.67003 10.5 5.79253 10.5 5.88612 10.5477C5.96844 10.5896 6.03537 10.6565 6.07731 10.7389C6.125 10.8325 6.125 10.955 6.125 11.2V13.3C6.125 13.545 6.125 13.6675 6.07731 13.7611C6.03537 13.8435 5.96844 13.9104 5.88612 13.9523C5.79253 14 5.67003 14 5.425 14H3.325C3.07997 14 2.95746 14 2.86387 13.9523C2.78155 13.9104 2.71463 13.8435 2.67269 13.7611C2.625 13.6675 2.625 13.545 2.625 13.3V11.2Z" stroke="#A06BFF" stroke-width="1.5" stroke-linecap="round" stroke-linejoin="round"/>
<path d="M1.75 2.45C1.75 2.20497 1.75 2.08246 1.79769 1.98887C1.83963 1.90655 1.90655 1.83963 1.98887 1.79769C2.08246 1.75 2.20497 1.75 2.45 1.75H4.55C4.79503 1.75 4.91753 1.75 5.01112 1.79769C5.09344 1.83963 5.16037 1.90655 5.20231 1.98887C5.25 2.08246 5.25 2.20497 5.25 2.45V4.55C5.25 4.79503 5.25 4.91753 5.20231 5.01112C5.16037 5.09344 5.09344 5.16037 5.01112 5.20231C4.91753 5.25 4.79503 5.25 4.55 5.25H2.45C2.20497 5.25 2.08246 5.25 1.98887 5.20231C1.90655 5.16037 1.83963 5.09344 1.79769 5.01112C1.75 4.91753 1.75 4.79503 1.75 4.55V2.45Z" stroke="#A06BFF" stroke-width="1.5" stroke-linecap="round" stroke-linejoin="round"/>
</svg>
