<svg width="33" height="33" viewBox="0 0 33 33" fill="none" xmlns="http://www.w3.org/2000/svg">
<path d="M10.8125 18.6875L10.8971 18.8577C11.3626 21.5305 13.694 23.5625 16.5 23.5625C19.306 23.5625 21.6373 21.5305 22.1029 18.8577L22.1875 18.6875C22.1875 17.7003 22.8794 17.0625 23.8666 17.0625C24.7251 17.0625 25.2651 17.8805 25.4375 18.6875C25.0272 22.9113 20.8315 26.8125 16.5 26.8125C12.1685 26.8125 7.97279 22.9113 7.5625 18.6875C7.73488 17.8805 8.27482 17.0625 9.13334 17.0625C10.1205 17.0625 10.8125 17.7003 10.8125 18.6875ZM11.625 8.9375C12.9712 8.9375 14.0625 10.0288 14.0625 11.375C14.0625 12.7212 12.9712 13.8125 11.625 13.8125C10.2788 13.8125 9.18749 12.7212 9.18749 11.375C9.18749 10.0288 10.2788 8.9375 11.625 8.9375ZM21.375 8.9375C22.7212 8.9375 23.8125 10.0288 23.8125 11.375C23.8125 12.7212 22.7212 13.8125 21.375 13.8125C20.0288 13.8125 18.9375 12.7212 18.9375 11.375C18.9375 10.0288 20.0288 8.9375 21.375 8.9375Z" fill="#A06BFF"/>
</svg>
