<svg width="22" height="22" viewBox="0 0 22 22" fill="none" xmlns="http://www.w3.org/2000/svg">
<path d="M18.5591 1.99456C18.5581 1.98479 18.5563 1.9753 18.5549 1.96565C18.5531 1.95311 18.5516 1.94052 18.5492 1.92806C18.5469 1.91681 18.5438 1.90586 18.541 1.89478C18.5384 1.88412 18.536 1.87342 18.5328 1.86285C18.5295 1.85198 18.5254 1.84149 18.5216 1.83083C18.5179 1.8203 18.5144 1.80968 18.5101 1.79932C18.506 1.78941 18.5012 1.77993 18.4966 1.77024C18.4916 1.75958 18.4868 1.74884 18.4812 1.73839C18.4763 1.72911 18.4706 1.72034 18.4653 1.71132C18.4591 1.70108 18.4533 1.69068 18.4466 1.68069C18.4401 1.67096 18.4328 1.66177 18.4258 1.65241C18.4194 1.64381 18.4134 1.63499 18.4066 1.6266C18.3935 1.6107 18.3796 1.59551 18.3652 1.58082C18.3637 1.57935 18.3626 1.57776 18.3611 1.57633C18.3595 1.57465 18.3576 1.57331 18.3559 1.57163C18.3415 1.55745 18.3265 1.54377 18.3108 1.53089C18.3027 1.52422 18.2942 1.51843 18.2859 1.51221C18.2762 1.505 18.2668 1.49753 18.2567 1.49082C18.2471 1.48435 18.237 1.47873 18.2271 1.47281C18.2178 1.46723 18.2086 1.46136 18.1989 1.45616C18.1891 1.45087 18.1789 1.44642 18.1688 1.44164C18.1585 1.43677 18.1484 1.43165 18.1378 1.42729C18.1283 1.42334 18.1186 1.42019 18.109 1.41671C18.0974 1.41252 18.086 1.40815 18.0742 1.40455C18.0649 1.40178 18.0554 1.39972 18.046 1.39733C18.0337 1.39418 18.0215 1.39074 18.009 1.38826C17.9986 1.38621 17.9881 1.38507 17.9776 1.38348C17.9659 1.38172 17.9543 1.37958 17.9424 1.3784C17.925 1.37672 17.9076 1.37618 17.8902 1.37576C17.8851 1.37567 17.8801 1.375 17.875 1.375H14.4375C14.2552 1.375 14.0803 1.44743 13.9514 1.57636C13.8224 1.7053 13.75 1.88016 13.75 2.0625C13.75 2.24484 13.8224 2.4197 13.9514 2.54864C14.0803 2.67757 14.2552 2.75 14.4375 2.75H16.2152L14.1154 4.84976C13.4228 4.25514 12.6005 3.83111 11.7144 3.6117C10.8283 3.39229 9.9031 3.38359 9.01304 3.58631C8.12299 3.78903 7.29282 4.19753 6.58915 4.77903C5.88548 5.36053 5.32788 6.09885 4.96108 6.93476C4.59428 7.77068 4.42849 8.68093 4.47701 9.59249C4.52553 10.5041 4.78701 11.3916 5.24047 12.1838C5.69394 12.9761 6.32676 13.651 7.08819 14.1545C7.84962 14.6581 8.71845 14.9761 9.625 15.0832V16.8438H7.5625C7.38016 16.8438 7.2053 16.9162 7.07636 17.0451C6.94743 17.174 6.875 17.3489 6.875 17.5312C6.875 17.7136 6.94743 17.8885 7.07636 18.0174C7.2053 18.1463 7.38016 18.2188 7.5625 18.2188H9.625V19.9375C9.625 20.1198 9.69743 20.2947 9.82636 20.4236C9.9553 20.5526 10.1302 20.625 10.3125 20.625C10.4948 20.625 10.6697 20.5526 10.7986 20.4236C10.9276 20.2947 11 20.1198 11 19.9375V18.2188H13.0625C13.2448 18.2188 13.4197 18.1463 13.5486 18.0174C13.6776 17.8885 13.75 17.7136 13.75 17.5312C13.75 17.3489 13.6776 17.174 13.5486 17.0451C13.4197 16.9162 13.2448 16.8438 13.0625 16.8438H11V15.0832C12.0108 14.9644 12.973 14.5834 13.7911 13.9779C14.6093 13.3725 15.2549 12.5637 15.664 11.6317C16.073 10.6998 16.2314 9.67704 16.1232 8.66502C16.015 7.653 15.6442 6.68684 15.0474 5.86238L17.1875 3.7223V5.5C17.1875 5.68234 17.2599 5.8572 17.3889 5.98614C17.5178 6.11507 17.6927 6.1875 17.875 6.1875C18.0573 6.1875 18.2322 6.11507 18.3611 5.98614C18.4901 5.8572 18.5625 5.68234 18.5625 5.5V2.06271C18.5625 2.03997 18.5613 2.01722 18.5591 1.99456ZM10.3125 13.75C9.42866 13.75 8.56468 13.4879 7.8298 12.9969C7.09491 12.5058 6.52214 11.8079 6.18391 10.9914C5.84568 10.1748 5.75719 9.27629 5.92962 8.40944C6.10204 7.54259 6.52765 6.74633 7.15262 6.12137C7.77758 5.4964 8.57384 5.07079 9.44069 4.89837C10.3075 4.72594 11.2061 4.81443 12.0226 5.15266C12.8392 5.49089 13.5371 6.06366 14.0281 6.79855C14.5192 7.53343 14.7812 8.39741 14.7812 9.28125C14.7799 10.466 14.3087 11.6019 13.4709 12.4397C12.6331 13.2774 11.4973 13.7487 10.3125 13.75Z" fill="#A06BFF"/>
</svg>
