<svg width="30" height="23" viewBox="0 0 30 23" fill="none" xmlns="http://www.w3.org/2000/svg">
<g clip-path="url(#clip0_6_142)">
<rect x="5" y="8" width="7" height="14" rx="1" fill="#41207D"/>
<rect x="11" y="8" width="8" height="8" fill="#41207D"/>
<rect x="4.57239" y="9.61304" width="6.15006" height="10.6207" transform="rotate(-45 4.57239 9.61304)" fill="#41207D"/>
<rect x="21.8534" y="5.65662" width="5.47183" height="11.1064" transform="rotate(45 21.8534 5.65662)" fill="#41207D"/>
<path d="M13.5648 1.39304C14.3677 0.634428 15.6319 0.636272 16.4743 1.35075C18.7474 3.27877 20.9786 4.61162 22.369 6.80341C22.807 7.49399 22.6208 8.37921 22.0426 8.95748L17.4142 13.5858C16.6332 14.3669 15.3669 14.3669 14.5858 13.5858L9.2915 8.29149C8.56007 7.56006 8.50268 6.38623 9.20195 5.624C10.6906 4.00133 11.9916 2.87958 13.5648 1.39304Z" fill="#41207D"/>
<rect x="18" y="8" width="7" height="14" rx="1" fill="#41207D"/>
<path d="M5.41604 7.9943L13.8535 1.24864C14.5288 0.708785 15.4712 0.708785 16.1465 1.24865L24.584 7.9943C25.0435 8.36165 25.3125 8.92855 25.3125 9.52931V20.2163C25.3125 21.2877 24.473 22.1563 23.4375 22.1563H19.6875C18.652 22.1563 17.8125 21.2888 17.8125 20.2188V18.3064C17.8125 16.6993 16.5532 16 15 16C13.4468 16 12.1875 16.6993 12.1875 18.3064V20.2188C12.1875 21.2888 11.348 22.1563 10.3125 22.1563H6.5625C5.52696 22.1563 4.6875 21.2877 4.6875 20.2163V9.52931C4.6875 8.92855 4.95655 8.36165 5.41604 7.9943Z" stroke="#A06BFF" stroke-width="1.5" stroke-linecap="round" stroke-linejoin="round"/>
</g>
<defs>
<clipPath id="clip0_6_142">
<rect width="30" height="23" fill="white"/>
</clipPath>
</defs>
</svg>
