<svg width="23" height="23" viewBox="0 0 23 23" fill="none" xmlns="http://www.w3.org/2000/svg">
<path d="M8.62498 10.5417C9.68353 10.5417 10.5416 9.68359 10.5416 8.62504C10.5416 7.56649 9.68353 6.70837 8.62498 6.70837C7.56643 6.70837 6.70831 7.56649 6.70831 8.62504C6.70831 9.68359 7.56643 10.5417 8.62498 10.5417Z" stroke="#A06BFF" stroke-width="1.5"/>
<path d="M12.4584 14.375C12.4584 15.4336 12.4584 16.2917 8.62502 16.2917C4.79169 16.2917 4.79169 15.4336 4.79169 14.375C4.79169 13.3165 6.50793 12.4584 8.62502 12.4584C10.7421 12.4584 12.4584 13.3165 12.4584 14.375Z" stroke="#A06BFF" stroke-width="1.5"/>
<path d="M1.91669 11.5C1.91669 7.88594 1.91669 6.07889 3.03944 4.95613C4.16221 3.83337 5.96925 3.83337 9.58335 3.83337H13.4167C17.0308 3.83337 18.8379 3.83337 19.9606 4.95613C21.0834 6.07889 21.0834 7.88594 21.0834 11.5C21.0834 15.1141 21.0834 16.9212 19.9606 18.0439C18.8379 19.1667 17.0308 19.1667 13.4167 19.1667H9.58335C5.96925 19.1667 4.16221 19.1667 3.03944 18.0439C1.91669 16.9212 1.91669 15.1141 1.91669 11.5Z" stroke="#A06BFF" stroke-width="1.5"/>
<path d="M18.2083 11.5H14.375" stroke="#A06BFF" stroke-width="1.5" stroke-linecap="round"/>
<path d="M18.2084 8.625H13.4167" stroke="#A06BFF" stroke-width="1.5" stroke-linecap="round"/>
<path d="M18.2083 14.375H15.3333" stroke="#A06BFF" stroke-width="1.5" stroke-linecap="round"/>
</svg>
