<svg width="23" height="23" viewBox="0 0 23 23" fill="none" xmlns="http://www.w3.org/2000/svg">
<g clip-path="url(#clip0_6_123)">
<ellipse cx="11.4999" cy="7.34002" rx="5.87931" ry="5.94" fill="#41207D"/>
<mask id="mask0_6_123" style="mask-type:alpha" maskUnits="userSpaceOnUse" x="1" y="11" width="21" height="22">
<ellipse cx="11.5" cy="21.92" rx="10.1552" ry="10.26" fill="#41207D"/>
</mask>
<g mask="url(#mask0_6_123)">
<rect x="1.34485" y="11.66" width="20.3103" height="10.26" fill="#41207D"/>
</g>
<mask id="mask1_6_123" style="mask-type:luminance" maskUnits="userSpaceOnUse" x="-4" y="-4" width="31" height="32">
<path d="M27 -4H-4V27.32H27V-4Z" fill="white"/>
</mask>
<g mask="url(#mask1_6_123)">
<g filter="url(#filter0_d_6_123)">
<path d="M14.518 12.1123L14.1821 11.555C13.9647 11.6887 13.8454 11.9389 13.8773 12.194C13.9091 12.449 14.0862 12.6615 14.3296 12.7365L14.518 12.1123ZM8.48187 12.1123L8.67023 12.7365C8.91366 12.6615 9.09076 12.449 9.12267 12.194C9.15444 11.9389 9.03509 11.6887 8.81769 11.555L8.48187 12.1123ZM16.6666 7.0925C16.6666 8.98213 15.6732 10.6379 14.1821 11.555L14.8538 12.6697C16.7138 11.5257 17.9583 9.45625 17.9583 7.0925H16.6666ZM11.5 1.8725C14.3534 1.8725 16.6666 4.20958 16.6666 7.0925H17.9583C17.9583 3.48885 15.0668 0.567505 11.5 0.567505V1.8725ZM6.33326 7.0925C6.33326 4.20958 8.64645 1.8725 11.5 1.8725V0.567505C7.93309 0.567505 5.04159 3.48885 5.04159 7.0925H6.33326ZM8.81769 11.555C7.32665 10.6379 6.33326 8.98214 6.33326 7.0925H5.04159C5.04159 9.45625 6.28606 11.5257 8.14606 12.6697L8.81769 11.555ZM8.29352 11.4881C4.21605 12.7443 1.14541 16.3324 0.605338 20.717L1.88711 20.8781C2.36322 17.0129 5.0724 13.8448 8.67023 12.7365L8.29352 11.4881ZM0.605338 20.717C0.462596 21.8758 1.41277 22.7525 2.45826 22.7525V21.4475C2.07702 21.4475 1.85366 21.1498 1.88711 20.8781L0.605338 20.717ZM2.45826 22.7525H20.5416V21.4475H2.45826V22.7525ZM20.5416 22.7525C21.5871 22.7525 22.5373 21.8758 22.3945 20.717L21.1127 20.8781C21.1461 21.1498 20.9228 21.4475 20.5416 21.4475V22.7525ZM22.3945 20.717C21.8545 16.3324 18.7838 12.7443 14.7063 11.4881L14.3296 12.7365C17.9274 13.8448 20.6366 17.0129 21.1127 20.8781L22.3945 20.717Z" fill="#A06BFF"/>
</g>
</g>
</g>
<defs>
<filter id="filter0_d_6_123" x="-32.7423" y="0.567505" width="88.4844" height="88.8517" filterUnits="userSpaceOnUse" color-interpolation-filters="sRGB">
<feFlood flood-opacity="0" result="BackgroundImageFix"/>
<feColorMatrix in="SourceAlpha" type="matrix" values="0 0 0 0 0 0 0 0 0 0 0 0 0 0 0 0 0 0 127 0" result="hardAlpha"/>
<feOffset dy="33.3333"/>
<feGaussianBlur stdDeviation="16.6667"/>
<feColorMatrix type="matrix" values="0 0 0 0 0 0 0 0 0 0 0 0 0 0 0 0 0 0 0.1 0"/>
<feBlend mode="normal" in2="BackgroundImageFix" result="effect1_dropShadow_6_123"/>
<feBlend mode="normal" in="SourceGraphic" in2="effect1_dropShadow_6_123" result="shape"/>
</filter>
<clipPath id="clip0_6_123">
<rect width="23" height="23" fill="white"/>
</clipPath>
</defs>
</svg>
