<svg width="22" height="22" viewBox="0 0 22 22" fill="none" xmlns="http://www.w3.org/2000/svg">
<path d="M7.79166 11.4584L9.62499 13.2917L14.2083 8.70837" stroke="#A06BFF" stroke-width="1.5" stroke-linecap="round" stroke-linejoin="round"/>
<path d="M2.77665 11.9878C2.47793 11.3628 2.47793 10.6362 2.77665 10.0112C2.90581 9.74101 3.12604 9.4826 3.56653 8.96573C3.74184 8.76001 3.8295 8.65715 3.90313 8.5473C4.07192 8.29547 4.18906 8.01267 4.24777 7.71526C4.27339 7.58551 4.28413 7.4508 4.30564 7.18136C4.35966 6.50441 4.38667 6.16593 4.48641 5.88353C4.71711 5.23038 5.23087 4.71663 5.88402 4.48592C6.16641 4.38618 6.5049 4.35917 7.18185 4.30515C7.45129 4.28365 7.586 4.2729 7.71575 4.24728C8.01316 4.18857 8.29596 4.07143 8.54778 3.90264C8.65764 3.82901 8.7605 3.74135 8.96622 3.56604C9.4831 3.12555 9.74151 2.90532 10.0117 2.77617C10.6367 2.47744 11.3633 2.47744 11.9883 2.77617C12.2585 2.90532 12.5169 3.12555 13.0338 3.56604C13.2395 3.74135 13.3424 3.82901 13.4523 3.90264C13.7041 4.07143 13.9869 4.18857 14.2842 4.24728C14.414 4.2729 14.5487 4.28365 14.8182 4.30515C15.4952 4.35917 15.8336 4.38618 16.116 4.48592C16.7691 4.71663 17.2829 5.23038 17.5136 5.88353M4.48641 16.1155C4.71711 16.7686 5.23087 17.2824 5.88402 17.5132C6.16641 17.6129 6.5049 17.6398 7.18185 17.6939C7.45129 17.7154 7.586 17.7262 7.71575 17.7518C8.01316 17.8105 8.29596 17.9276 8.54778 18.0964C8.65763 18.17 8.7605 18.2577 8.96622 18.433C9.4831 18.8735 9.74151 19.0938 10.0117 19.2229C10.6367 19.5216 11.3633 19.5216 11.9883 19.2229C12.2585 19.0938 12.5169 18.8735 13.0338 18.433C13.2395 18.2577 13.3424 18.17 13.4523 18.0964C13.7041 17.9276 13.9869 17.8105 14.2842 17.7518C14.414 17.7262 14.5487 17.7154 14.8182 17.6939C15.4952 17.6398 15.8336 17.6129 16.116 17.5132C16.7691 17.2824 17.2829 16.7686 17.5136 16.1155C17.6134 15.8331 17.6403 15.4947 17.6944 14.8177C17.7159 14.5483 17.7266 14.4135 17.7523 14.2838C17.8109 13.9864 17.9281 13.7036 18.0969 13.4518C18.1705 13.3419 18.2582 13.239 18.4335 13.0333C18.874 12.5164 19.0943 12.258 19.2234 11.9878C19.5221 11.3628 19.5221 10.6362 19.2234 10.0112" stroke="#A06BFF" stroke-width="1.5" stroke-linecap="round"/>
</svg>
